<svg xmlns="http://www.w3.org/2000/svg" width="47.374" height="47.374" viewBox="0 0 47.374 47.374">
  <defs>
    <style>
      .cls-1 {
        fill: #231f20;
      }

      .cls-2 {
        fill: #fff;
      }
    </style>
  </defs>
  <g id="Groupe_53" data-name="Groupe 53" transform="translate(-1747.313 -25.313)">
    <path id="Tracé_252" data-name="Tracé 252" class="cls-1" d="M185.436,321.952a23.687,23.687,0,1,0-23.687-23.687,23.688,23.688,0,0,0,23.687,23.687" transform="translate(1585.564 -249.266)"/>
    <path id="Tracé_253" data-name="Tracé 253" class="cls-2" d="M193.112,304.513h2.449v-2.38a6.358,6.358,0,0,1,.789-3.67,4.357,4.357,0,0,1,3.8-1.784,15.378,15.378,0,0,1,4.39.441l-.612,3.628a8.262,8.262,0,0,0-1.973-.3c-.953,0-1.806.342-1.806,1.294v2.766h3.905l-.273,3.544h-3.632v12.311h-4.59V308.057h-2.449Z" transform="translate(1571.966 -259.524)"/>
  </g>
</svg>
