<svg xmlns="http://www.w3.org/2000/svg" width="47.086" height="47.086" viewBox="0 0 47.086 47.086">
  <defs>
    <style>
      .cls-1 {
        fill: #231f20;
      }

      .cls-2 {
        fill: #fff;
      }
    </style>
  </defs>
  <g id="Groupe_54" data-name="Groupe 54" transform="translate(-2164.438 -748.438)">
    <path id="Tracé_254" data-name="Tracé 254" class="cls-1" d="M680.861,431.987a23.543,23.543,0,1,0-23.543-23.543,23.542,23.542,0,0,0,23.543,23.543" transform="translate(1507.12 363.537)"/>
    <path id="Tracé_255" data-name="Tracé 255" class="cls-2" d="M684.946,426.972h-4.269V413.311h4.269ZM682.7,411.6h-.031a2.369,2.369,0,0,1-2.546-2.367A2.6,2.6,0,1,1,682.7,411.6Zm19.321,15.37h-4.841V419.9c0-1.851-.755-3.113-2.421-3.113a2.448,2.448,0,0,0-2.311,1.674,3.154,3.154,0,0,0-.1,1.117v7.391h-4.8s.063-12.521,0-13.661h4.8v2.144c.283-.937,1.815-2.275,4.26-2.275,3.033,0,5.417,1.965,5.417,6.2Z" transform="translate(1497.736 354.501)"/>
  </g>
</svg>
