<svg xmlns="http://www.w3.org/2000/svg" width="128.68" height="120.511" viewBox="0 0 128.68 120.511">
  <defs>
    <style>
      .cls-1 {
        fill: #0d1319;
      }

      .cls-2 {
        fill: #c21522;
      }
    </style>
  </defs>
  <g id="Groupe_44" data-name="Groupe 44" transform="translate(-222.931 -111.996)">
    <g id="Groupe_30" data-name="Groupe 30" transform="translate(223.151 186.756)">
      <path id="Tracé_184" data-name="Tracé 184" class="cls-1" d="M236.634,327.025c.013.185.02.371.021.557a6.859,6.859,0,0,1-.485,2.592,6.593,6.593,0,0,1-1.35,2.121,6.348,6.348,0,0,1-4.608,1.954,6.513,6.513,0,0,1-2.592-.513,6.589,6.589,0,0,1-3.548-3.527,6.71,6.71,0,0,1-.015-5.181,6.592,6.592,0,0,1,3.527-3.548,6.512,6.512,0,0,1,2.589-.527,6.37,6.37,0,0,1,3.279.854,6.842,6.842,0,0,1,2.375,2.267l-2.169,1.4a4.047,4.047,0,0,0-1.426-1.6,3.654,3.654,0,0,0-2.052-.6,3.6,3.6,0,0,0-1.559.349,4.076,4.076,0,0,0-1.261.931,4.558,4.558,0,0,0,.018,6.11,4.1,4.1,0,0,0,1.266.925,3.713,3.713,0,0,0,2.822.112,3.409,3.409,0,0,0,1.058-.635,4.309,4.309,0,0,0,.8-.958,4.178,4.178,0,0,0,.507-1.218l-3.528.01-1.2-2.411,7.465-.022C236.6,326.654,236.622,326.839,236.634,327.025Z" transform="translate(-223.545 -320.746)"/>
      <path id="Tracé_185" data-name="Tracé 185" class="cls-1" d="M302.041,329.888a4.591,4.591,0,0,1-.826.3,5.009,5.009,0,0,1-.927.123c-.366.02-.817.027-1.356.023s-1.234-.006-2.089,0l.011,3.844-2.618.008-.038-13,5.887-.017a4.378,4.378,0,0,1,1.775.357,4.7,4.7,0,0,1,1.451.98,4.634,4.634,0,0,1,.989,1.464,4.51,4.51,0,0,1,.367,1.791,4.379,4.379,0,0,1-.727,2.491A4.545,4.545,0,0,1,302.041,329.888Zm-5.205-2.158,3.269-.009a1.9,1.9,0,0,0,1.409-.589,2.136,2.136,0,0,0,.571-1.57,2.071,2.071,0,0,0-.159-.789,2.354,2.354,0,0,0-.429-.677,2.071,2.071,0,0,0-.634-.471,1.731,1.731,0,0,0-.77-.175l-3.269.01.013,4.216v.055Zm8.172,6.42-3.306.01-1.994-2.446,2.169-1.416Z" transform="translate(-268.85 -320.882)"/>
      <path id="Tracé_186" data-name="Tracé 186" class="cls-1" d="M362.411,320.515a6.238,6.238,0,0,1,2.564.521,6.45,6.45,0,0,1,3.437,3.537,6.862,6.862,0,0,1,.5,2.589,6.983,6.983,0,0,1-.347,2.23,6.491,6.491,0,0,1-1,1.915,6.415,6.415,0,0,1-1.546,1.463,6.088,6.088,0,0,1-1.975.869l-1.306-2.205a3.344,3.344,0,0,0,1.419-.423,3.913,3.913,0,0,0,1.1-.931,4.24,4.24,0,0,0,.72-1.321,4.828,4.828,0,0,0,.255-1.589,4.75,4.75,0,0,0-.292-1.652,4.334,4.334,0,0,0-.793-1.353,3.662,3.662,0,0,0-1.2-.906,3.68,3.68,0,0,0-3.065.009,3.786,3.786,0,0,0-1.2.913,4.225,4.225,0,0,0-.795,1.357,4.9,4.9,0,0,0,.01,3.306,4.216,4.216,0,0,0,.8,1.353,3.812,3.812,0,0,0,1.209.907,3.509,3.509,0,0,0,1.533.33l.007,2.414a6.343,6.343,0,0,1-4.629-1.938,6.589,6.589,0,0,1-1.371-2.122,7.061,7.061,0,0,1-.015-5.181,6.455,6.455,0,0,1,3.415-3.557A6.243,6.243,0,0,1,362.411,320.515Z" transform="translate(-308.448 -320.465)"/>
      <path id="Tracé_187" data-name="Tracé 187" class="cls-1" d="M428.588,328.393a3.361,3.361,0,0,0,.237,1.253,3.166,3.166,0,0,0,1.6,1.714,2.683,2.683,0,0,0,1.162.256l.006,2.284a5.513,5.513,0,0,1-2.192-.43,5.694,5.694,0,0,1-1.795-1.192,5.53,5.53,0,0,1-1.655-3.969l-.022-7.54,2.636-.008.022,7.54v.093Zm8.558-7.658.022,7.54a5.367,5.367,0,0,1-.319,1.867,5.774,5.774,0,0,1-.887,1.6,5.647,5.647,0,0,1-1.343,1.23,5.746,5.746,0,0,1-1.688.758l-1.157-2.132a2.61,2.61,0,0,0,1.077-.31,3.133,3.133,0,0,0,.88-.709,3.244,3.244,0,0,0,.591-1,3.363,3.363,0,0,0,.21-1.2.039.039,0,0,0-.009-.028.034.034,0,0,1-.01-.028c0-.037,0-.043.01-.019s.008,0,.008-.064v-.447l0-1.169-.006-2.238-.011-3.64Z" transform="translate(-353.322 -320.607)"/>
      <path id="Tracé_188" data-name="Tracé 188" class="cls-1" d="M499.266,320.943a4.77,4.77,0,0,1,1.47.981,4.594,4.594,0,0,1,1,1.454,4.521,4.521,0,0,1-.978,5.017,4.877,4.877,0,0,1-1.464.979,4.439,4.439,0,0,1-1.782.367l-1.448,0-1.419-2.6,2.859-.008a1.911,1.911,0,0,0,.771-.16,1.783,1.783,0,0,0,.621-.447,2.235,2.235,0,0,0,.415-.688,2.379,2.379,0,0,0,.156-.883,2.054,2.054,0,0,0-.161-.79,2.457,2.457,0,0,0-.419-.676,2.111,2.111,0,0,0-.624-.482,1.661,1.661,0,0,0-.772-.182l-3.287.01.032,10.751-2.581.008-.038-13,5.867-.017A4.441,4.441,0,0,1,499.266,320.943Z" transform="translate(-395.441 -320.511)"/>
      <path id="Tracé_189" data-name="Tracé 189" class="cls-1" d="M563.681,320.377l.025,2.173-6.109.018.006,8.673,6.11-.018.006,2.154-8.709.026-.038-13Zm-1.518,7.823-2.9.009-1.215-2.411,4.1-.012Z" transform="translate(-436.068 -320.377)"/>
    </g>
    <g id="Groupe_31" data-name="Groupe 31" transform="translate(223.367 205.84)">
      <path id="Tracé_190" data-name="Tracé 190" class="cls-2" d="M239.448,375.231a9.547,9.547,0,0,1,2.933,1.968,9.169,9.169,0,0,1,1.987,2.916,9.036,9.036,0,0,1-1.987,10.027,9.723,9.723,0,0,1-2.933,1.95,8.878,8.878,0,0,1-3.565.724h-2.9l-2.823-5.2h5.72a3.807,3.807,0,0,0,1.541-.316,3.593,3.593,0,0,0,1.244-.892,4.48,4.48,0,0,0,.836-1.374,4.767,4.767,0,0,0,.315-1.764,4.1,4.1,0,0,0-.315-1.578,4.9,4.9,0,0,0-.836-1.356,4.176,4.176,0,0,0-1.244-.965,3.341,3.341,0,0,0-1.541-.372h-6.574v21.5h-5.163v-26h11.737A8.872,8.872,0,0,1,239.448,375.231Z" transform="translate(-224.145 -374.171)"/>
      <path id="Tracé_191" data-name="Tracé 191" class="cls-2" d="M304.38,391.962a9.358,9.358,0,0,1-1.653.595,10.2,10.2,0,0,1-1.857.241c-.731.036-1.635.05-2.711.036s-2.47-.018-4.178-.018V400.5h-5.238v-26h11.774a8.739,8.739,0,0,1,3.547.724,9.379,9.379,0,0,1,2.9,1.968,9.273,9.273,0,0,1,1.968,2.934,8.984,8.984,0,0,1,.725,3.583,8.739,8.739,0,0,1-1.467,4.977A9.091,9.091,0,0,1,304.38,391.962Zm-10.4-4.345h6.536a3.811,3.811,0,0,0,2.823-1.17,4.281,4.281,0,0,0,1.151-3.138,4.07,4.07,0,0,0-.316-1.578,4.671,4.671,0,0,0-.854-1.356,4.157,4.157,0,0,0-1.262-.947,3.488,3.488,0,0,0-1.542-.352h-6.536v8.542Zm16.3,12.887h-6.611l-3.974-4.9,4.346-2.823Z" transform="translate(-265.568 -374.171)"/>
      <path id="Tracé_192" data-name="Tracé 192" class="cls-2" d="M363,373.571a12.443,12.443,0,0,1,5.124,1.06,12.922,12.922,0,0,1,6.853,7.093,13.686,13.686,0,0,1,.983,5.181,14.006,14.006,0,0,1-.7,4.457,13.129,13.129,0,0,1-2.007,3.826,12.869,12.869,0,0,1-3.1,2.915,12.165,12.165,0,0,1-3.955,1.727l-2.6-4.42a6.657,6.657,0,0,0,2.842-.835,7.759,7.759,0,0,0,2.209-1.857,8.514,8.514,0,0,0,1.449-2.638,9.639,9.639,0,0,0,.52-3.176,9.491,9.491,0,0,0-.575-3.3,8.611,8.611,0,0,0-1.58-2.711,7.372,7.372,0,0,0-2.395-1.821,7.358,7.358,0,0,0-6.128,0,7.585,7.585,0,0,0-2.414,1.821,8.417,8.417,0,0,0-1.6,2.711,9.758,9.758,0,0,0,0,6.611,8.413,8.413,0,0,0,1.6,2.711,7.557,7.557,0,0,0,2.414,1.82,6.982,6.982,0,0,0,3.065.668v4.829a12.7,12.7,0,0,1-9.248-3.9,13.235,13.235,0,0,1-2.731-4.253,14.139,14.139,0,0,1,0-10.362,12.922,12.922,0,0,1,6.853-7.093A12.445,12.445,0,0,1,363,373.571Z" transform="translate(-304.869 -373.571)"/>
      <path id="Tracé_193" data-name="Tracé 193" class="cls-2" d="M431.234,380.078l5.238,2.86v8.914a8.2,8.2,0,0,1-.688,3.342,9.09,9.09,0,0,1-1.857,2.748,8.641,8.641,0,0,1-6.184,2.563h-5.869v-5.163h5.869a3.365,3.365,0,0,0,1.374-.279,3.6,3.6,0,0,0,1.114-.761,3.36,3.36,0,0,0,.743-1.114,3.476,3.476,0,0,0,.259-1.337Zm5.238-5.571v4.827h-10.1l-2.563-4.827Z" transform="translate(-350.937 -374.171)"/>
      <path id="Tracé_194" data-name="Tracé 194" class="cls-2" d="M486.707,374.507l.037,4.345H474.526l-.037,17.344h12.219V400.5H469.288v-26Zm-3.083,15.636h-5.794l-2.414-4.829h8.208Z" transform="translate(-381.34 -374.171)"/>
      <path id="Tracé_195" data-name="Tracé 195" class="cls-2" d="M537.051,374.507v26H531.7V379.037h-7.651v-4.531Zm.781,0h6.87v4.531H540.1Z" transform="translate(-416.457 -374.171)"/>
    </g>
    <g id="Groupe_32" data-name="Groupe 32" transform="translate(222.931 111.996)">
      <path id="Tracé_196" data-name="Tracé 196" class="cls-2" d="M341.419,143.724s-2.107,13.892,1.546,15.77c.541.271,2.551-1.005,3.015-.851s-3.247,3.247-2.59,3.788,2.667-4.445,9.663-2.59a5.8,5.8,0,0,1,3.092,3.479,10.834,10.834,0,0,0-3.6-1.886,7.332,7.332,0,0,0-7.5,2.165,37.072,37.072,0,0,0-3.59,5.171c-1.237,1.971-1.329,1.789-2.4.541-.263-.308-1.738-2.108-1.817-2.319-1.044-.387-1.2-.039-1.855-1.16a3.237,3.237,0,0,1-2.242.7,73.666,73.666,0,0,0,2.164-14.108c.657.657.85,7.266.85,7.266s.928-1.508,1.43-2.512c.58.271-.039,6.107-.039,6.107a40.288,40.288,0,0,0,2.164-10.9A24.007,24.007,0,0,1,341.419,143.724Z" transform="translate(-293.605 -132.341)"/>
      <path id="Tracé_197" data-name="Tracé 197" class="cls-2" d="M274.74,198.515s.8.033,5.374-3.237a47.06,47.06,0,0,1-4.947,5.737,5.949,5.949,0,0,0-1.236,1.958c-.2.5-.487,1-.86,1.015-.747.025-.822,1.135-3.118,1.108-2.54-.029-3.148.255-5.441-.338s-1.33-3.531-1.727-4.1a2.226,2.226,0,0,1-.412-1.443c0-.516-.206-.721-2.5-2.294-2.1-1.437-7.427-8.849-7.581-12.171a.4.4,0,0,1,.668-.316c3.716,3.331,5.7,5.5,7.815,6.044a8.852,8.852,0,0,1-4.587-1.417c-1.391-1.263,2.242,3.169,4.973,4.973s3.737,2.345,3.994,2.86,1.211.026,1.211.026a4.287,4.287,0,0,1-1.6,1.881c-1.185.773,1.16,1.6,1.16,1.6a.506.506,0,0,1,.283.438c0,.309.747.206.928-.1s-.3,1.165.258,1.52c.49.309,1.211-1.752,2.654-2.293.361.67-.335,1.649-.335,1.649s-.438,1.546-1.494,1.082c0,0,.245.586,2,.973s2.4-1.411,2.667-2.184c.153-.438-1.031-.747.077-1.469C274.046,199.141,274.068,198.714,274.74,198.515Z" transform="translate(-241.758 -158.383)"/>
      <path id="Tracé_198" data-name="Tracé 198" class="cls-2" d="M281.62,188.968c-2.362.457-3.031,1.091-3.363.1a36.16,36.16,0,0,0-2.8-5.064.525.525,0,0,1,.174-.793s2.641,3.575,5.2,3.981c0,0-.773,1.817.831.773a3.894,3.894,0,0,0,1.036-.846c.473-.553.447-.389.447-.389a4.351,4.351,0,0,1-.488,1.543A1.926,1.926,0,0,1,281.62,188.968Z" transform="translate(-256.535 -157.66)"/>
      <path id="Tracé_199" data-name="Tracé 199" class="cls-2" d="M285.633,135.922c-.379-.349-.76.059-.477.49a5.784,5.784,0,0,0,2.931,2.5c.972.452,1.6.966,2.474.676a6.079,6.079,0,0,1,2.377-.232s-.039.386-1.082.947a2.4,2.4,0,0,0-1.391,1.237,4.683,4.683,0,0,1,1.14-.483c.428,1.714-.136,2.022-.621,3.592a8.711,8.711,0,0,0-.367,2.124,22.865,22.865,0,0,1-.79,4.972c-.212,1.836-1,1.527-1,1.527a1.968,1.968,0,0,1,.117,1.843l-.194-.819c-.194-.819-2.783-1.141-2.783-1.141s.406-.29,1.3-.831,1.217-2.217,1.217-2.764a26.655,26.655,0,0,1-.232-3.595,16.7,16.7,0,0,0-.039-3.4c-.1-.947-2.753-2.208-2.927-2.324a3.271,3.271,0,0,1-1.313-3.56,2.3,2.3,0,0,1,1.206-1.614c.483-.21,1.237-.174,1.295.541,0,0,.142,1.495-.187.954A1.375,1.375,0,0,0,285.633,135.922Z" transform="translate(-261.978 -126.717)"/>
      <path id="Tracé_200" data-name="Tracé 200" class="cls-2" d="M311.055,119.926a7.6,7.6,0,0,1,2.139-3.814c.906-.719.545-.745,1.34-1.443s1.443-.876,4.535-1.16a4.354,4.354,0,0,0,1.994-.383,6.943,6.943,0,0,1,1.072-.465,11.664,11.664,0,0,1,3.711-.544c1.443-.18,1.495-.309,4.355.747a14.788,14.788,0,0,0,3.917,1.082,6.807,6.807,0,0,1-3.2.232,15.019,15.019,0,0,0,1.6,2.113c.464.361-1.02-.088-2.319-.67a5.136,5.136,0,0,0-4.741.335c-1.984,1.082-4.87,2.577-6.88,5.514a1.076,1.076,0,0,1-1.159.67s1.8,4.149.8,3.144-3.839-4.3-6.493-4.072l.592,1.6a6.336,6.336,0,0,1,2.087,2.448,12.167,12.167,0,0,1-1.958-1.16s-.413.7.025,1.082,2.139,2.938,1.83,4.072a5.417,5.417,0,0,0-.928-1.082,2.9,2.9,0,0,1-1.108-1.16c-.412-.8-.622-1.816-.67-.8s-.232,2.036-1.907,1.417c.232.644.876.747,1.727.747.086,0-1.623,1.082-2.4-.052-.8-.9-1.366-.979-1.134-2.216.515.129.206.386.8.335a2.323,2.323,0,0,1-.026-1.6s-2.267-.49-1.8-3.5,4.045-2.809,4.045-2.809Z" transform="translate(-276.706 -111.996)"/>
      <path id="Tracé_201" data-name="Tracé 201" class="cls-2" d="M307.662,190.219c-2.416-.618-2.261.58-2.261.58Z" transform="translate(-275.812 -162.042)"/>
      <path id="Tracé_202" data-name="Tracé 202" class="cls-2" d="M308.636,194.795a13.8,13.8,0,0,1,1.72-.773,3.417,3.417,0,0,1,.483,0s-1.255,1.955-1.74,1.372S308.636,194.795,308.636,194.795Z" transform="translate(-277.888 -164.588)"/>
      <path id="Tracé_203" data-name="Tracé 203" class="cls-2" d="M308.852,200.07a2.741,2.741,0,0,0,2.145.271C309.432,202.2,308.852,200.07,308.852,200.07Z" transform="translate(-278.027 -168.472)"/>
      <path id="Tracé_204" data-name="Tracé 204" class="cls-2" d="M326.674,178.394c3.634-.851,2.087-2.4,2.087-2.4s-2.938-3.015-2.705-6.8c1.546-4.716-4.175-7.189-5.643-9.431s1.778-8.658,1.778-8.658a18.491,18.491,0,0,0,2.963,2.86,2.546,2.546,0,0,0,1.722,2.082,3.679,3.679,0,0,1,1.256.845c.258.258.09-.039-.169-1.612-.413-2.5-2.448-1.855-2.448-1.855a20.877,20.877,0,0,1-2.474-3.4c4.252-6.339-1.1-12.88-2.1-13.267.924,2.594.324,10.638.324,10.638s.812-14.2-8.813-15.306c1.778,2.86,3.711,6.8.773,12.755s-7.576,6.262-7.576,6.262,1.5-2.982.722-2.558c-6.65,2.547-12.718,3.192-15.706,2.618-2.591-.5-3.344-5.467-3.415-7.094a3.826,3.826,0,0,0-.845-2.42s-1.036.668,1.006,7.392c.354,6.367.354,6.721-4.74,12.451,17.05,6.721,23.275-2.334,24.407-2.193s4.74,3.325,4.74,3.325-.707,8.914-4.174,12.663c-5.376-1.061-25.468-1.061-25.468-1.061a4.958,4.958,0,0,1-.071-2.051,8.885,8.885,0,0,0-.237-2.553,11.7,11.7,0,0,1-.225-1.564,3.078,3.078,0,0,0-.67-1.614,11.76,11.76,0,0,1-1.486-3.466c-.99.424-4.174,5.235-4.174,5.235,2.971,5.518,1.769,6.226,1.769,6.226l-6.792.354a6.674,6.674,0,0,1-.283-2.378,6.1,6.1,0,0,0,.212-3.211,28.11,28.11,0,0,1-1.2-4.245,7.329,7.329,0,0,0-.424,3.184c.212,1.556.141,3.4-.424,4.174a14.32,14.32,0,0,0-1.224,2.855s-17.935.489-44.012,10.8c63.081-9.38,128.017,0,128.017,0C347.237,183.65,326.674,178.394,326.674,178.394Zm-4.479-2.289c-1.2.908-.715,1.334-.715,1.334s-4.5-.917-6.391-1.136a1.272,1.272,0,0,1-1.128-1.425,1.95,1.95,0,0,1,1.353-1.71c1.392-.309,1.311-2.407,1.315-3.247s.154-2.783.154-2.783a35.705,35.705,0,0,1,4.02,3.711C321.576,171.93,323.725,174.944,322.195,176.1Z" transform="translate(-222.931 -124.88)"/>
    </g>
  </g>
</svg>
