<svg xmlns="http://www.w3.org/2000/svg" width="127.58" height="119.845" viewBox="0 0 127.58 119.845">
  <defs>
    <style>
      .cls-1 {
        fill: #0d1319;
      }

      .cls-2 {
        fill: #c21522;
      }

      .cls-3 {
        fill: #47a01a;
      }
    </style>
  </defs>
  <g id="Groupe_49" data-name="Groupe 49" transform="translate(-212.917 -119.303)">
    <g id="Groupe_26" data-name="Groupe 26" transform="translate(213.292 193.674)">
      <path id="Tracé_163" data-name="Tracé 163" class="cls-1" d="M226.994,335.025c.012.185.02.37.02.555a6.816,6.816,0,0,1-.49,2.576,6.559,6.559,0,0,1-1.349,2.106,6.312,6.312,0,0,1-4.588,1.929,6.477,6.477,0,0,1-2.576-.517,6.552,6.552,0,0,1-3.518-3.518,6.674,6.674,0,0,1,0-5.152,6.552,6.552,0,0,1,3.518-3.518,6.476,6.476,0,0,1,2.576-.517,6.33,6.33,0,0,1,3.259.859,6.8,6.8,0,0,1,2.356,2.262l-2.161,1.386a4.025,4.025,0,0,0-1.414-1.6,3.635,3.635,0,0,0-2.04-.6,3.571,3.571,0,0,0-1.551.342,4.05,4.05,0,0,0-1.256.923,4.532,4.532,0,0,0,0,6.076,4.077,4.077,0,0,0,1.256.924,3.693,3.693,0,0,0,2.806.12,3.393,3.393,0,0,0,1.053-.629,4.292,4.292,0,0,0,.8-.95,4.158,4.158,0,0,0,.508-1.21H220.7l-1.182-2.4h7.424C226.964,334.657,226.981,334.84,226.994,335.025Z" transform="translate(-213.975 -328.95)"/>
      <path id="Tracé_164" data-name="Tracé 164" class="cls-1" d="M292.849,338.064a4.558,4.558,0,0,1-.822.3,4.93,4.93,0,0,1-.922.12c-.364.02-.812.025-1.349.02s-1.228-.01-2.077-.01v3.823h-2.6V329.384h5.854a4.355,4.355,0,0,1,1.764.36,4.67,4.67,0,0,1,1.44.979,4.614,4.614,0,0,1,.979,1.459,4.481,4.481,0,0,1,.36,1.782,4.354,4.354,0,0,1-.729,2.475A4.519,4.519,0,0,1,292.849,338.064Zm-5.17-2.161h3.25a1.887,1.887,0,0,0,1.4-.582,2.124,2.124,0,0,0,.573-1.56,2.051,2.051,0,0,0-.156-.785,2.326,2.326,0,0,0-.425-.674,2.069,2.069,0,0,0-.629-.47,1.725,1.725,0,0,0-.766-.176h-3.25V335.9Zm8.108,6.409H292.5l-1.976-2.438,2.161-1.4Z" transform="translate(-259.849 -329.218)"/>
      <path id="Tracé_165" data-name="Tracé 165" class="cls-1" d="M353.563,328.917a6.2,6.2,0,0,1,2.549.525,6.419,6.419,0,0,1,3.408,3.528,6.826,6.826,0,0,1,.49,2.576,6.943,6.943,0,0,1-.352,2.216,6.469,6.469,0,0,1-1,1.9,6.375,6.375,0,0,1-1.542,1.451,6.048,6.048,0,0,1-1.967.858l-1.292-2.2a3.318,3.318,0,0,0,1.412-.417,3.886,3.886,0,0,0,1.1-.922,4.214,4.214,0,0,0,.72-1.312,4.791,4.791,0,0,0,.258-1.579,4.718,4.718,0,0,0-.286-1.644,4.3,4.3,0,0,0-.784-1.348,3.643,3.643,0,0,0-1.192-.9,3.662,3.662,0,0,0-3.048,0,3.764,3.764,0,0,0-1.2.9,4.2,4.2,0,0,0-.794,1.348,4.873,4.873,0,0,0,0,3.288,4.18,4.18,0,0,0,.794,1.348,3.788,3.788,0,0,0,1.2.906,3.494,3.494,0,0,0,1.524.332v2.4a6.3,6.3,0,0,1-4.6-1.94,6.554,6.554,0,0,1-1.357-2.114,7.022,7.022,0,0,1,0-5.152,6.476,6.476,0,0,1,1.357-2.106,6.55,6.55,0,0,1,2.049-1.422A6.206,6.206,0,0,1,353.563,328.917Z" transform="translate(-299.879 -328.917)"/>
      <path id="Tracé_166" data-name="Tracé 166" class="cls-1" d="M420.164,336.975a3.341,3.341,0,0,0,.232,1.246,3.147,3.147,0,0,0,1.587,1.709,2.664,2.664,0,0,0,1.155.258v2.271a5.486,5.486,0,0,1-2.179-.434,5.669,5.669,0,0,1-1.782-1.19,5.5,5.5,0,0,1-1.634-3.952v-7.5h2.622v7.591Zm8.533-7.591v7.5a5.33,5.33,0,0,1-.323,1.856,5.747,5.747,0,0,1-.887,1.587,5.625,5.625,0,0,1-1.339,1.219,5.7,5.7,0,0,1-1.681.749l-1.145-2.124a2.607,2.607,0,0,0,1.072-.3,3.129,3.129,0,0,0,.877-.7,3.228,3.228,0,0,0,.59-1,3.337,3.337,0,0,0,.212-1.191.04.04,0,0,0-.008-.028.034.034,0,0,1-.01-.028c0-.037,0-.043.01-.019s.008,0,.008-.064v-7.453Z" transform="translate(-345.316 -329.218)"/>
      <path id="Tracé_167" data-name="Tracé 167" class="cls-1" d="M491.2,329.744a4.759,4.759,0,0,1,1.459.979,4.584,4.584,0,0,1,.987,1.449,4.548,4.548,0,0,1,0,3.546,4.469,4.469,0,0,1-.987,1.441,4.848,4.848,0,0,1-1.459.97,4.414,4.414,0,0,1-1.773.36h-1.44l-1.4-2.586h2.844a1.89,1.89,0,0,0,.767-.157,1.772,1.772,0,0,0,.619-.442,2.222,2.222,0,0,0,.415-.683,2.361,2.361,0,0,0,.157-.877,2.031,2.031,0,0,0-.157-.786,2.44,2.44,0,0,0-.415-.673,2.1,2.1,0,0,0-.619-.481,1.659,1.659,0,0,0-.767-.183H486.16v10.692h-2.567V329.384h5.835A4.414,4.414,0,0,1,491.2,329.744Z" transform="translate(-387.932 -329.218)"/>
      <path id="Tracé_168" data-name="Tracé 168" class="cls-1" d="M555.965,329.384l.018,2.161h-6.075l-.02,8.625h6.076v2.142H547.3V329.384Zm-1.532,7.775h-2.881l-1.2-2.4h4.082Z" transform="translate(-429.038 -329.218)"/>
    </g>
    <g id="Groupe_27" data-name="Groupe 27" transform="translate(212.917 212.628)">
      <path id="Tracé_169" data-name="Tracé 169" class="cls-2" d="M228.136,384a9.5,9.5,0,0,1,2.917,1.957,9.124,9.124,0,0,1,1.976,2.9,8.986,8.986,0,0,1-1.976,9.972,9.678,9.678,0,0,1-2.917,1.939,8.834,8.834,0,0,1-3.546.72h-2.881l-2.808-5.171h5.689a3.789,3.789,0,0,0,1.532-.314,3.567,3.567,0,0,0,1.237-.887,4.456,4.456,0,0,0,.832-1.367,4.745,4.745,0,0,0,.313-1.754,4.082,4.082,0,0,0-.313-1.57,4.874,4.874,0,0,0-.832-1.349,4.149,4.149,0,0,0-1.237-.96,3.323,3.323,0,0,0-1.532-.37h-6.538V409.13h-5.134V383.276H224.59A8.834,8.834,0,0,1,228.136,384Z" transform="translate(-212.917 -382.942)"/>
      <path id="Tracé_170" data-name="Tracé 170" class="cls-2" d="M293.427,400.635a9.287,9.287,0,0,1-1.644.592,10.157,10.157,0,0,1-1.847.24c-.727.036-1.626.05-2.7.036s-2.456-.018-4.155-.018v7.646h-5.209V383.276h11.708a8.7,8.7,0,0,1,3.528.72,9.334,9.334,0,0,1,2.881,1.957,9.223,9.223,0,0,1,1.957,2.918,8.933,8.933,0,0,1,.721,3.563,8.693,8.693,0,0,1-1.459,4.95A9.036,9.036,0,0,1,293.427,400.635Zm-10.342-4.321h6.5a3.792,3.792,0,0,0,2.808-1.164,4.259,4.259,0,0,0,1.145-3.121,4.051,4.051,0,0,0-.314-1.57,4.649,4.649,0,0,0-.85-1.349,4.126,4.126,0,0,0-1.255-.942,3.465,3.465,0,0,0-1.533-.35h-6.5v8.5ZM299.3,409.13h-6.574l-3.953-4.875,4.322-2.808Z" transform="translate(-254.828 -382.942)"/>
      <path id="Tracé_171" data-name="Tracé 171" class="cls-2" d="M352.4,382.336a12.379,12.379,0,0,1,5.1,1.053,12.85,12.85,0,0,1,6.815,7.054,13.611,13.611,0,0,1,.978,5.152,13.931,13.931,0,0,1-.7,4.432,13.058,13.058,0,0,1-2,3.8,12.8,12.8,0,0,1-3.084,2.9,12.1,12.1,0,0,1-3.933,1.717l-2.586-4.4a6.615,6.615,0,0,0,2.826-.83,7.711,7.711,0,0,0,2.2-1.846,8.473,8.473,0,0,0,1.441-2.623,9.592,9.592,0,0,0,.517-3.158,9.445,9.445,0,0,0-.572-3.287,8.557,8.557,0,0,0-1.571-2.7,7.329,7.329,0,0,0-2.381-1.811,7.319,7.319,0,0,0-6.094,0,7.543,7.543,0,0,0-2.4,1.811,8.37,8.37,0,0,0-1.587,2.7,9.7,9.7,0,0,0,0,6.574,8.369,8.369,0,0,0,1.587,2.7,7.518,7.518,0,0,0,2.4,1.809,6.944,6.944,0,0,0,3.048.665v4.8a12.632,12.632,0,0,1-9.2-3.878,13.162,13.162,0,0,1-2.715-4.23,14.063,14.063,0,0,1,0-10.3,12.849,12.849,0,0,1,6.815-7.054A12.381,12.381,0,0,1,352.4,382.336Z" transform="translate(-294.592 -382.336)"/>
      <path id="Tracé_172" data-name="Tracé 172" class="cls-2" d="M421.058,388.816l5.209,2.844v8.865a8.158,8.158,0,0,1-.684,3.324,9.045,9.045,0,0,1-1.847,2.733,8.593,8.593,0,0,1-6.149,2.549H411.75V404h5.836a3.347,3.347,0,0,0,1.367-.277,3.578,3.578,0,0,0,1.108-.757,3.341,3.341,0,0,0,.739-1.107,3.452,3.452,0,0,0,.258-1.329Zm5.209-5.54v4.8H416.219l-2.549-4.8Z" transform="translate(-341.203 -382.942)"/>
      <path id="Tracé_173" data-name="Tracé 173" class="cls-2" d="M476.75,383.276l.037,4.321H464.636l-.037,17.248H476.75v4.285H459.427V383.276Zm-3.066,15.55h-5.762l-2.4-4.8h8.163Z" transform="translate(-371.965 -382.942)"/>
      <path id="Tracé_174" data-name="Tracé 174" class="cls-2" d="M527.424,383.276V409.13h-5.318V387.782H514.5v-4.506Zm.776,0h6.832v4.506h-4.58Z" transform="translate(-407.496 -382.942)"/>
    </g>
    <g id="Groupe_28" data-name="Groupe 28" transform="translate(213.188 119.303)">
      <path id="Tracé_175" data-name="Tracé 175" class="cls-3" d="M332.737,151.207s-2.1,13.815,1.537,15.683c.538.269,2.537-1,3-.846s-3.229,3.229-2.576,3.767,2.652-4.42,9.609-2.575a5.762,5.762,0,0,1,3.075,3.459,10.768,10.768,0,0,0-3.575-1.876,7.292,7.292,0,0,0-7.461,2.154,36.873,36.873,0,0,0-3.57,5.142c-1.23,1.96-1.322,1.78-2.383.538-.262-.307-1.728-2.1-1.807-2.307-1.038-.384-1.191-.038-1.845-1.153a3.218,3.218,0,0,1-2.23.692,73.251,73.251,0,0,0,2.153-14.03c.654.654.846,7.226.846,7.226s.922-1.5,1.422-2.5c.577.269-.038,6.074-.038,6.074a40.085,40.085,0,0,0,2.153-10.84A23.871,23.871,0,0,1,332.737,151.207Z" transform="translate(-285.188 -139.887)"/>
      <path id="Tracé_176" data-name="Tracé 176" class="cls-3" d="M265.53,206.146s.8.033,5.344-3.219a46.762,46.762,0,0,1-4.92,5.706,5.91,5.91,0,0,0-1.229,1.948c-.2.5-.484,1-.855,1.009-.743.026-.817,1.129-3.1,1.1-2.526-.029-3.131.254-5.411-.336s-1.322-3.511-1.717-4.075a2.212,2.212,0,0,1-.41-1.435c0-.512-.205-.717-2.486-2.281-2.086-1.43-7.387-8.8-7.539-12.1a.4.4,0,0,1,.665-.314c3.7,3.313,5.672,5.474,7.771,6.011a8.8,8.8,0,0,1-4.562-1.409c-1.384-1.256,2.23,3.152,4.946,4.946s3.716,2.332,3.972,2.844,1.2.026,1.2.026a4.265,4.265,0,0,1-1.589,1.871c-1.179.769,1.153,1.589,1.153,1.589a.5.5,0,0,1,.282.436c0,.307.743.2.922-.1s-.3,1.159.257,1.512c.487.308,1.2-1.742,2.639-2.281.359.666-.333,1.64-.333,1.64s-.436,1.538-1.486,1.076c0,0,.243.583,1.986.967s2.383-1.4,2.653-2.172c.152-.435-1.025-.743.077-1.461C264.84,206.769,264.862,206.344,265.53,206.146Z" transform="translate(-232.73 -166.236)"/>
      <path id="Tracé_177" data-name="Tracé 177" class="cls-3" d="M272.628,196.64c-2.349.454-3.015,1.085-3.344.1A35.915,35.915,0,0,0,266.5,191.7a.522.522,0,0,1,.173-.788s2.627,3.555,5.17,3.959c0,0-.769,1.806.826.768a3.877,3.877,0,0,0,1.03-.841c.47-.55.445-.387.445-.387a4.326,4.326,0,0,1-.485,1.534A1.917,1.917,0,0,1,272.628,196.64Z" transform="translate(-247.681 -165.505)"/>
      <path id="Tracé_178" data-name="Tracé 178" class="cls-3" d="M276.712,143.352c-.377-.347-.755.059-.474.487a5.753,5.753,0,0,0,2.915,2.486c.966.449,1.6.961,2.46.673a6.039,6.039,0,0,1,2.364-.231s-.038.384-1.076.942a2.385,2.385,0,0,0-1.384,1.23,4.632,4.632,0,0,1,1.134-.48c.426,1.7-.136,2.011-.617,3.571a8.655,8.655,0,0,0-.365,2.112,22.738,22.738,0,0,1-.786,4.945c-.211,1.826-1,1.518-1,1.518a1.957,1.957,0,0,1,.116,1.834l-.193-.815c-.193-.815-2.767-1.134-2.767-1.134s.4-.288,1.288-.826,1.211-2.2,1.211-2.748a26.514,26.514,0,0,1-.231-3.575,16.627,16.627,0,0,0-.038-3.383c-.1-.942-2.738-2.2-2.911-2.312a3.253,3.253,0,0,1-1.306-3.54,2.287,2.287,0,0,1,1.2-1.605c.48-.209,1.23-.173,1.288.538,0,0,.141,1.486-.186.948A1.365,1.365,0,0,0,276.712,143.352Z" transform="translate(-253.188 -134.197)"/>
      <path id="Tracé_179" data-name="Tracé 179" class="cls-3" d="M302.249,127.188a7.556,7.556,0,0,1,2.127-3.792c.9-.715.542-.74,1.332-1.435s1.435-.871,4.51-1.153a4.332,4.332,0,0,0,1.983-.381,6.94,6.94,0,0,1,1.065-.462,11.608,11.608,0,0,1,3.691-.541c1.435-.179,1.486-.308,4.331.743a14.715,14.715,0,0,0,3.9,1.076,6.772,6.772,0,0,1-3.178.231,14.9,14.9,0,0,0,1.589,2.1c.461.359-1.015-.087-2.307-.666a5.106,5.106,0,0,0-4.715.333c-1.973,1.076-4.843,2.562-6.842,5.484a1.07,1.07,0,0,1-1.153.666s1.794,4.126.794,3.126-3.818-4.279-6.457-4.049l.589,1.589a6.3,6.3,0,0,1,2.076,2.434,12.1,12.1,0,0,1-1.947-1.153s-.41.692.026,1.076,2.127,2.921,1.819,4.049a5.379,5.379,0,0,0-.923-1.076,2.882,2.882,0,0,1-1.1-1.153c-.41-.794-.619-1.806-.666-.794s-.231,2.024-1.9,1.409c.231.641.871.743,1.717.743.086,0-1.614,1.076-2.383-.051-.794-.9-1.358-.974-1.128-2.2.513.128.205.384.794.333a2.309,2.309,0,0,1-.026-1.589s-2.255-.487-1.794-3.485S302.1,125.8,302.1,125.8Z" transform="translate(-268.09 -119.303)"/>
      <path id="Tracé_180" data-name="Tracé 180" class="cls-3" d="M298.859,197.959c-2.4-.615-2.249.577-2.249.577Z" transform="translate(-267.186 -169.938)"/>
      <path id="Tracé_181" data-name="Tracé 181" class="cls-3" d="M299.864,202.554a13.7,13.7,0,0,1,1.71-.768,3.352,3.352,0,0,1,.481,0s-1.248,1.944-1.73,1.365S299.864,202.554,299.864,202.554Z" transform="translate(-269.286 -172.515)"/>
      <path id="Tracé_182" data-name="Tracé 182" class="cls-3" d="M300.081,207.868a2.726,2.726,0,0,0,2.133.269C300.658,209.982,300.081,207.868,300.081,207.868Z" transform="translate(-269.426 -176.445)"/>
      <path id="Tracé_183" data-name="Tracé 183" class="cls-3" d="M316.851,185.556c3.613-.846,2.076-2.383,2.076-2.383s-2.921-3-2.69-6.765c1.537-4.689-4.152-7.15-5.612-9.379s1.768-8.61,1.768-8.61a18.382,18.382,0,0,0,2.947,2.844,2.533,2.533,0,0,0,1.712,2.07,3.657,3.657,0,0,1,1.249.839c.256.257.089-.039-.169-1.6-.41-2.486-2.434-1.845-2.434-1.845a20.746,20.746,0,0,1-2.46-3.383c4.228-6.3-1.091-12.809-2.09-13.194.919,2.58.322,10.58.322,10.58s.807-14.12-8.764-15.222c1.768,2.844,3.69,6.765.768,12.685s-7.534,6.227-7.534,6.227,1.492-2.966.718-2.544c-6.613,2.533-12.648,3.174-15.618,2.6-2.577-.495-3.326-5.437-3.4-7.055a3.805,3.805,0,0,0-.84-2.407s-1.031.664,1,7.351c.352,6.332.352,6.684-4.714,12.382,16.955,6.684,23.146-2.321,24.272-2.181s4.714,3.307,4.714,3.307-.7,8.864-4.151,12.593c-5.347-1.056-25.327-1.056-25.327-1.056a4.931,4.931,0,0,1-.07-2.04,8.833,8.833,0,0,0-.236-2.539,11.716,11.716,0,0,1-.224-1.555,3.06,3.06,0,0,0-.666-1.605,11.689,11.689,0,0,1-1.477-3.447c-.985.422-4.151,5.206-4.151,5.206,2.955,5.487,1.759,6.191,1.759,6.191l-6.754.352a6.642,6.642,0,0,1-.281-2.365,6.066,6.066,0,0,0,.211-3.193,28,28,0,0,1-1.2-4.221,7.294,7.294,0,0,0-.422,3.166c.211,1.548.141,3.377-.422,4.151a14.249,14.249,0,0,0-1.217,2.839s-17.836.487-43.769,10.737c62.732-9.328,127.309,0,127.309,0C337.3,190.783,316.851,185.556,316.851,185.556Zm-4.455-2.276c-1.192.9-.711,1.326-.711,1.326s-4.477-.912-6.355-1.13a1.265,1.265,0,0,1-1.122-1.417,1.939,1.939,0,0,1,1.346-1.7c1.384-.308,1.3-2.394,1.307-3.229s.154-2.767.154-2.767a35.525,35.525,0,0,1,4,3.69C311.781,179.128,313.918,182.126,312.4,183.279Z" transform="translate(-213.681 -132.338)"/>
    </g>
  </g>
</svg>
