<svg xmlns="http://www.w3.org/2000/svg" width="128.034" height="119.784" viewBox="0 0 128.034 119.784">
  <defs>
    <style>
      .cls-1 {
        fill: #0d1319;
      }

      .cls-2 {
        fill: #c21522;
      }

      .cls-3 {
        fill: #67737a;
      }
    </style>
  </defs>
  <g id="Groupe_48" data-name="Groupe 48" transform="translate(-226.253 -112.096)">
    <g id="Groupe_34" data-name="Groupe 34" transform="translate(227.407 186.43)">
      <path id="Tracé_205" data-name="Tracé 205" class="cls-1" d="M242.513,327.4c.012.185.02.37.02.554a6.806,6.806,0,0,1-.49,2.575,6.551,6.551,0,0,1-1.348,2.1,6.306,6.306,0,0,1-4.586,1.928,6.474,6.474,0,0,1-2.575-.517,6.554,6.554,0,0,1-3.516-3.516,6.675,6.675,0,0,1,0-5.15,6.554,6.554,0,0,1,3.516-3.516,6.48,6.48,0,0,1,2.575-.517,6.333,6.333,0,0,1,3.257.858,6.8,6.8,0,0,1,2.354,2.261l-2.16,1.385a4.023,4.023,0,0,0-1.413-1.6,3.633,3.633,0,0,0-2.039-.6,3.575,3.575,0,0,0-1.551.342,4.062,4.062,0,0,0-1.256.922,4.531,4.531,0,0,0,0,6.073,4.077,4.077,0,0,0,1.256.924,3.691,3.691,0,0,0,2.805.12,3.392,3.392,0,0,0,1.053-.629,4.283,4.283,0,0,0,.8-.95,4.16,4.16,0,0,0,.507-1.209h-3.506l-1.181-2.4h7.42C242.483,327.031,242.5,327.214,242.513,327.4Z" transform="translate(-229.501 -321.327)"/>
      <path id="Tracé_206" data-name="Tracé 206" class="cls-1" d="M308.229,330.435a4.551,4.551,0,0,1-.822.3,4.955,4.955,0,0,1-.922.12c-.364.019-.812.025-1.348.019s-1.227-.01-2.076-.01v3.821h-2.6V321.76h5.851a4.351,4.351,0,0,1,1.763.36,4.67,4.67,0,0,1,1.439.979,4.608,4.608,0,0,1,.979,1.459,4.474,4.474,0,0,1,.36,1.781,4.352,4.352,0,0,1-.729,2.474A4.517,4.517,0,0,1,308.229,330.435Zm-5.168-2.16h3.249a1.885,1.885,0,0,0,1.4-.582,2.124,2.124,0,0,0,.572-1.559,2.052,2.052,0,0,0-.156-.784,2.335,2.335,0,0,0-.425-.674,2.063,2.063,0,0,0-.629-.47,1.724,1.724,0,0,0-.765-.176h-3.249v4.245Zm8.1,6.405h-3.286l-1.975-2.437,2.16-1.4Z" transform="translate(-275.245 -321.594)"/>
      <path id="Tracé_207" data-name="Tracé 207" class="cls-1" d="M368.82,321.294a6.2,6.2,0,0,1,2.547.525,6.415,6.415,0,0,1,3.406,3.526,6.825,6.825,0,0,1,.489,2.575,6.943,6.943,0,0,1-.351,2.215,6.472,6.472,0,0,1-1,1.9,6.373,6.373,0,0,1-1.541,1.45,6.05,6.05,0,0,1-1.966.857l-1.292-2.2a3.324,3.324,0,0,0,1.412-.416,3.883,3.883,0,0,0,1.1-.922,4.206,4.206,0,0,0,.719-1.311,4.79,4.79,0,0,0,.258-1.578,4.723,4.723,0,0,0-.285-1.643,4.308,4.308,0,0,0-.784-1.347,3.637,3.637,0,0,0-1.191-.9,3.658,3.658,0,0,0-3.046,0,3.757,3.757,0,0,0-1.2.9,4.2,4.2,0,0,0-.794,1.347,4.873,4.873,0,0,0,0,3.286,4.189,4.189,0,0,0,.794,1.347,3.786,3.786,0,0,0,1.2.905,3.49,3.49,0,0,0,1.523.332v2.4a6.305,6.305,0,0,1-4.6-1.939,6.559,6.559,0,0,1-1.356-2.113,7.019,7.019,0,0,1,0-5.15,6.419,6.419,0,0,1,3.4-3.526A6.2,6.2,0,0,1,368.82,321.294Z" transform="translate(-315.163 -321.294)"/>
      <path id="Tracé_208" data-name="Tracé 208" class="cls-1" d="M435.283,329.347a3.342,3.342,0,0,0,.231,1.246A3.148,3.148,0,0,0,437.1,332.3a2.663,2.663,0,0,0,1.154.258v2.27a5.486,5.486,0,0,1-2.178-.434,5.666,5.666,0,0,1-1.781-1.19,5.5,5.5,0,0,1-1.633-3.951V321.76h2.621v7.587Zm8.528-7.587v7.494a5.331,5.331,0,0,1-.322,1.855,5.733,5.733,0,0,1-.886,1.587,5.628,5.628,0,0,1-1.338,1.219,5.709,5.709,0,0,1-1.68.748l-1.144-2.123a2.6,2.6,0,0,0,1.071-.3,3.112,3.112,0,0,0,.877-.7,3.228,3.228,0,0,0,.59-1,3.348,3.348,0,0,0,.212-1.191.04.04,0,0,0-.008-.028.033.033,0,0,1-.01-.027c0-.037,0-.043.01-.02s.008,0,.008-.063V321.76Z" transform="translate(-360.473 -321.594)"/>
      <path id="Tracé_209" data-name="Tracé 209" class="cls-1" d="M506.186,322.12a4.757,4.757,0,0,1,1.459.979,4.577,4.577,0,0,1,.987,1.449,4.542,4.542,0,0,1,0,3.544,4.468,4.468,0,0,1-.987,1.441,4.854,4.854,0,0,1-1.459.969,4.409,4.409,0,0,1-1.772.36h-1.439l-1.4-2.584h2.842a1.9,1.9,0,0,0,.766-.157,1.769,1.769,0,0,0,.619-.443,2.219,2.219,0,0,0,.415-.682,2.36,2.36,0,0,0,.157-.877,2.032,2.032,0,0,0-.157-.786,2.442,2.442,0,0,0-.415-.673,2.1,2.1,0,0,0-.619-.481,1.659,1.659,0,0,0-.766-.183h-3.267v10.687h-2.565V321.76h5.832A4.409,4.409,0,0,1,506.186,322.12Z" transform="translate(-402.969 -321.594)"/>
      <path id="Tracé_210" data-name="Tracé 210" class="cls-1" d="M570.822,321.76l.018,2.16h-6.072l-.019,8.621h6.073v2.141h-8.656V321.76Zm-1.531,7.771h-2.879l-1.2-2.4h4.08Z" transform="translate(-443.96 -321.594)"/>
    </g>
    <g id="Groupe_35" data-name="Groupe 35" transform="translate(226.68 205.374)">
      <path id="Tracé_211" data-name="Tracé 211" class="cls-2" d="M242.665,376.265a9.5,9.5,0,0,1,2.915,1.956,9.125,9.125,0,0,1,1.975,2.9,8.982,8.982,0,0,1-1.975,9.967,9.665,9.665,0,0,1-2.915,1.938,8.825,8.825,0,0,1-3.544.72h-2.88l-2.806-5.168h5.686a3.787,3.787,0,0,0,1.531-.314,3.561,3.561,0,0,0,1.236-.886,4.451,4.451,0,0,0,.831-1.366,4.741,4.741,0,0,0,.313-1.753,4.078,4.078,0,0,0-.313-1.569,4.864,4.864,0,0,0-.831-1.348,4.161,4.161,0,0,0-1.236-.959,3.323,3.323,0,0,0-1.531-.369h-6.535v21.375h-5.132V375.545h11.667A8.825,8.825,0,0,1,242.665,376.265Z" transform="translate(-227.454 -375.211)"/>
      <path id="Tracé_212" data-name="Tracé 212" class="cls-2" d="M307.826,392.9a9.281,9.281,0,0,1-1.643.591,10.164,10.164,0,0,1-1.846.24q-1.089.054-2.695.036t-4.153-.018v7.642h-5.206V375.545h11.7a8.692,8.692,0,0,1,3.526.72,9.334,9.334,0,0,1,2.88,1.956,9.231,9.231,0,0,1,1.956,2.917,8.931,8.931,0,0,1,.721,3.562,8.686,8.686,0,0,1-1.458,4.947A9.034,9.034,0,0,1,307.826,392.9Zm-10.336-4.319h6.5a3.788,3.788,0,0,0,2.806-1.163,4.256,4.256,0,0,0,1.144-3.119,4.048,4.048,0,0,0-.314-1.568,4.641,4.641,0,0,0-.849-1.348,4.13,4.13,0,0,0-1.254-.942,3.468,3.468,0,0,0-1.533-.35h-6.5v8.491ZM313.7,401.386h-6.571l-3.951-4.873,4.32-2.806Z" transform="translate(-269.248 -375.211)"/>
      <path id="Tracé_213" data-name="Tracé 213" class="cls-2" d="M366.676,374.606a12.366,12.366,0,0,1,5.093,1.053,12.843,12.843,0,0,1,6.812,7.05,13.6,13.6,0,0,1,.977,5.15,13.929,13.929,0,0,1-.7,4.43,13.052,13.052,0,0,1-1.995,3.8,12.788,12.788,0,0,1-3.082,2.9,12.093,12.093,0,0,1-3.931,1.716l-2.585-4.393a6.616,6.616,0,0,0,2.825-.83,7.713,7.713,0,0,0,2.2-1.846,8.459,8.459,0,0,0,1.44-2.622,9.586,9.586,0,0,0,.517-3.156,9.429,9.429,0,0,0-.572-3.285,8.551,8.551,0,0,0-1.57-2.695,7.326,7.326,0,0,0-2.381-1.81,7.315,7.315,0,0,0-6.091,0,7.536,7.536,0,0,0-2.4,1.81,8.365,8.365,0,0,0-1.587,2.695,9.7,9.7,0,0,0,0,6.571,8.372,8.372,0,0,0,1.587,2.695,7.509,7.509,0,0,0,2.4,1.808,6.937,6.937,0,0,0,3.046.664v4.8a12.624,12.624,0,0,1-9.192-3.876,13.146,13.146,0,0,1-2.714-4.228,14.053,14.053,0,0,1,0-10.3,12.843,12.843,0,0,1,6.812-7.05A12.368,12.368,0,0,1,366.676,374.606Z" transform="translate(-308.9 -374.606)"/>
      <path id="Tracé_214" data-name="Tracé 214" class="cls-2" d="M435.194,381.082l5.206,2.842v8.86a8.155,8.155,0,0,1-.684,3.322,9.04,9.04,0,0,1-1.846,2.732,8.59,8.59,0,0,1-6.146,2.547h-5.833v-5.132h5.833a3.345,3.345,0,0,0,1.366-.277,3.574,3.574,0,0,0,1.107-.757,3.344,3.344,0,0,0,.739-1.107,3.461,3.461,0,0,0,.258-1.329Zm5.206-5.537v4.8H430.359l-2.547-4.8Z" transform="translate(-355.38 -375.211)"/>
      <path id="Tracé_215" data-name="Tracé 215" class="cls-2" d="M490.788,375.545l.037,4.318H478.68l-.037,17.24h12.145v4.282H473.474V375.545Zm-3.064,15.541h-5.759l-2.4-4.8h8.159Z" transform="translate(-386.056 -375.211)"/>
      <path id="Tracé_216" data-name="Tracé 216" class="cls-2" d="M541.354,375.545v25.841h-5.315V380.048h-7.6v-4.5Zm.776,0h6.829v4.5h-4.578Z" transform="translate(-421.487 -375.211)"/>
    </g>
    <g id="Groupe_36" data-name="Groupe 36" transform="translate(226.253 112.096)">
      <path id="Tracé_217" data-name="Tracé 217" class="cls-3" d="M345.085,143.937s-2.094,13.808,1.537,15.675c.538.269,2.536-1,3-.845s-3.228,3.227-2.574,3.765,2.651-4.418,9.6-2.574a5.761,5.761,0,0,1,3.074,3.458,10.766,10.766,0,0,0-3.574-1.874,7.287,7.287,0,0,0-7.457,2.153,36.805,36.805,0,0,0-3.569,5.139c-1.229,1.959-1.321,1.778-2.382.538-.262-.306-1.727-2.1-1.806-2.305-1.037-.384-1.191-.038-1.844-1.153a3.215,3.215,0,0,1-2.228.691,73.229,73.229,0,0,0,2.151-14.023c.653.653.845,7.223.845,7.223s.922-1.5,1.422-2.5c.576.269-.038,6.07-.038,6.07a40.049,40.049,0,0,0,2.151-10.834A23.864,23.864,0,0,1,345.085,143.937Z" transform="translate(-297.56 -132.623)"/>
      <path id="Tracé_218" data-name="Tracé 218" class="cls-3" d="M278.031,198.788s.8.033,5.342-3.218a46.784,46.784,0,0,1-4.918,5.7,5.9,5.9,0,0,0-1.228,1.947c-.2.5-.484,1-.855,1.008-.743.026-.817,1.128-3.1,1.1-2.525-.029-3.129.254-5.408-.335s-1.322-3.509-1.716-4.072a2.21,2.21,0,0,1-.41-1.434c0-.512-.205-.717-2.484-2.28-2.085-1.429-7.383-8.8-7.535-12.1a.4.4,0,0,1,.664-.314c3.694,3.311,5.67,5.471,7.768,6.008a8.8,8.8,0,0,1-4.559-1.409c-1.383-1.255,2.228,3.15,4.943,4.943s3.714,2.331,3.97,2.843,1.2.026,1.2.026a4.262,4.262,0,0,1-1.588,1.87c-1.178.769,1.153,1.588,1.153,1.588a.5.5,0,0,1,.282.436c0,.307.743.2.922-.1s-.3,1.158.256,1.511c.486.307,1.2-1.741,2.638-2.279.359.666-.333,1.639-.333,1.639s-.435,1.537-1.486,1.076c0,0,.243.582,1.985.967s2.382-1.4,2.651-2.171c.152-.435-1.024-.743.077-1.46C277.342,199.41,277.364,198.986,278.031,198.788Z" transform="translate(-245.249 -158.898)"/>
      <path id="Tracé_219" data-name="Tracé 219" class="cls-3" d="M285.091,189.288c-2.347.454-3.013,1.085-3.343.1a35.872,35.872,0,0,0-2.785-5.033.522.522,0,0,1,.173-.788s2.625,3.554,5.168,3.957c0,0-.769,1.805.826.768a3.872,3.872,0,0,0,1.03-.84c.47-.55.445-.387.445-.387a4.325,4.325,0,0,1-.485,1.533A1.914,1.914,0,0,1,285.091,189.288Z" transform="translate(-260.157 -158.169)"/>
      <path id="Tracé_220" data-name="Tracé 220" class="cls-3" d="M289.162,136.1c-.377-.346-.755.059-.474.487a5.75,5.75,0,0,0,2.913,2.484c.966.449,1.594.96,2.459.672a6.044,6.044,0,0,1,2.363-.231s-.038.384-1.076.941a2.384,2.384,0,0,0-1.383,1.229,4.643,4.643,0,0,1,1.133-.48c.426,1.7-.135,2.01-.617,3.57a8.652,8.652,0,0,0-.365,2.111,22.74,22.74,0,0,1-.785,4.942c-.211,1.825-1,1.518-1,1.518a1.956,1.956,0,0,1,.116,1.832l-.193-.814c-.193-.814-2.766-1.133-2.766-1.133s.4-.288,1.287-.826,1.21-2.2,1.21-2.747a26.438,26.438,0,0,1-.231-3.573,16.641,16.641,0,0,0-.038-3.381c-.1-.941-2.737-2.195-2.909-2.31a3.251,3.251,0,0,1-1.305-3.538,2.286,2.286,0,0,1,1.2-1.605c.48-.209,1.229-.173,1.287.538,0,0,.141,1.486-.185.948A1.365,1.365,0,0,0,289.162,136.1Z" transform="translate(-265.649 -126.949)"/>
      <path id="Tracé_221" data-name="Tracé 221" class="cls-3" d="M314.651,119.978a7.552,7.552,0,0,1,2.126-3.791c.9-.715.542-.74,1.332-1.434s1.434-.871,4.508-1.152a4.325,4.325,0,0,0,1.982-.381,6.936,6.936,0,0,1,1.065-.462,11.594,11.594,0,0,1,3.689-.54c1.434-.179,1.486-.307,4.329.743a14.711,14.711,0,0,0,3.893,1.076,6.769,6.769,0,0,1-3.176.231,14.9,14.9,0,0,0,1.588,2.1c.461.359-1.014-.087-2.305-.666a5.105,5.105,0,0,0-4.713.333c-1.972,1.076-4.841,2.561-6.839,5.481a1.069,1.069,0,0,1-1.152.666s1.793,4.124.794,3.125-3.816-4.277-6.454-4.047l.589,1.588a6.294,6.294,0,0,1,2.075,2.433,12.089,12.089,0,0,1-1.947-1.153s-.41.692.026,1.076,2.126,2.92,1.819,4.047a5.4,5.4,0,0,0-.922-1.076,2.879,2.879,0,0,1-1.1-1.152c-.41-.794-.618-1.805-.666-.794s-.231,2.024-1.9,1.409c.231.64.871.743,1.716.743.086,0-1.614,1.076-2.382-.051-.794-.9-1.357-.973-1.127-2.2.512.128.205.384.794.333a2.307,2.307,0,0,1-.026-1.588s-2.254-.487-1.793-3.483S314.5,118.6,314.5,118.6Z" transform="translate(-280.509 -112.096)"/>
      <path id="Tracé_222" data-name="Tracé 222" class="cls-3" d="M311.265,190.6c-2.4-.615-2.247.576-2.247.576Z" transform="translate(-279.607 -162.589)"/>
      <path id="Tracé_223" data-name="Tracé 223" class="cls-3" d="M312.265,195.183a13.705,13.705,0,0,1,1.709-.769,3.408,3.408,0,0,1,.48,0s-1.247,1.943-1.729,1.364S312.265,195.183,312.265,195.183Z" transform="translate(-281.702 -165.159)"/>
      <path id="Tracé_224" data-name="Tracé 224" class="cls-3" d="M312.481,200.485a2.725,2.725,0,0,0,2.132.269C313.057,202.6,312.481,200.485,312.481,200.485Z" transform="translate(-281.842 -169.078)"/>
      <path id="Tracé_225" data-name="Tracé 225" class="cls-3" d="M329.37,178.286c3.611-.845,2.074-2.382,2.074-2.382s-2.92-3-2.689-6.762c1.537-4.687-4.15-7.146-5.609-9.374s1.767-8.606,1.767-8.606a18.386,18.386,0,0,0,2.946,2.843,2.532,2.532,0,0,0,1.712,2.069,3.655,3.655,0,0,1,1.248.839c.256.257.09-.039-.168-1.6-.41-2.484-2.433-1.844-2.433-1.844a20.748,20.748,0,0,1-2.459-3.381c4.226-6.3-1.09-12.8-2.089-13.187.918,2.579.322,10.574.322,10.574s.807-14.113-8.76-15.214c1.767,2.843,3.688,6.762.768,12.678s-7.53,6.224-7.53,6.224,1.491-2.964.718-2.542c-6.61,2.531-12.642,3.172-15.611,2.6-2.575-.495-3.324-5.434-3.394-7.052a3.8,3.8,0,0,0-.84-2.406s-1.03.664,1,7.348c.352,6.329.352,6.68-4.711,12.376,16.947,6.68,23.135-2.321,24.26-2.18s4.711,3.3,4.711,3.3-.7,8.86-4.149,12.587c-5.344-1.055-25.314-1.055-25.314-1.055a4.928,4.928,0,0,1-.07-2.039,8.825,8.825,0,0,0-.236-2.538,11.683,11.683,0,0,1-.224-1.554,3.061,3.061,0,0,0-.666-1.6,11.681,11.681,0,0,1-1.477-3.445c-.985.422-4.149,5.2-4.149,5.2,2.953,5.485,1.758,6.188,1.758,6.188l-6.751.351a6.637,6.637,0,0,1-.281-2.364,6.067,6.067,0,0,0,.211-3.192,27.967,27.967,0,0,1-1.2-4.219,7.283,7.283,0,0,0-.422,3.164c.211,1.547.141,3.375-.422,4.149A14.231,14.231,0,0,0,270,175.085s-17.827.486-43.747,10.732c62.7-9.323,127.245,0,127.245,0C349.809,183.511,329.37,178.286,329.37,178.286Zm-4.452-2.275c-1.191.9-.711,1.325-.711,1.325s-4.475-.912-6.352-1.129a1.264,1.264,0,0,1-1.121-1.416,1.938,1.938,0,0,1,1.345-1.7c1.383-.307,1.3-2.392,1.306-3.227s.153-2.766.153-2.766a35.455,35.455,0,0,1,4,3.688C324.3,171.861,326.439,174.858,324.918,176.011Z" transform="translate(-226.253 -125.095)"/>
    </g>
  </g>
</svg>
