<svg xmlns="http://www.w3.org/2000/svg" width="606.821" height="570.227" viewBox="0 0 606.821 570.227">
  <defs>
    <style>
      .cls-1 {
        fill: #0d1319;
      }

      .cls-2 {
        fill: #c21522;
      }
    </style>
  </defs>
  <g id="Groupe_4" data-name="Groupe 4" transform="translate(-215.199 -136.102)">
    <g id="Groupe_1" data-name="Groupe 1" transform="translate(216.985 489.968)">
      <path id="Tracé_1" data-name="Tracé 1" class="cls-1" d="M278.207,375.839c.059.879.092,1.759.092,2.638a32.445,32.445,0,0,1-2.329,12.257,31.214,31.214,0,0,1-6.419,10.02,30.022,30.022,0,0,1-21.831,9.179,30.845,30.845,0,0,1-12.257-2.46,31.18,31.18,0,0,1-16.74-16.74,31.769,31.769,0,0,1,0-24.516,31.184,31.184,0,0,1,16.74-16.738,30.816,30.816,0,0,1,12.257-2.462,30.145,30.145,0,0,1,15.506,4.088,32.4,32.4,0,0,1,11.208,10.762l-10.284,6.6a19.132,19.132,0,0,0-6.726-7.605,17.292,17.292,0,0,0-9.7-2.855,17.019,17.019,0,0,0-7.382,1.628,19.3,19.3,0,0,0-5.978,4.39,21.57,21.57,0,0,0,0,28.911,19.452,19.452,0,0,0,5.978,4.4,17.579,17.579,0,0,0,13.355.572,16.174,16.174,0,0,0,5.013-2.992,20.5,20.5,0,0,0,3.82-4.521,19.86,19.86,0,0,0,2.415-5.756H248.245l-5.623-11.423h35.322C278.062,374.088,278.148,374.96,278.207,375.839Z" transform="translate(-216.263 -346.935)"/>
      <path id="Tracé_2" data-name="Tracé 2" class="cls-1" d="M324.776,388.737a21.77,21.77,0,0,1-3.91,1.4,23.6,23.6,0,0,1-4.39.571c-1.733.092-3.865.119-6.417.092s-5.84-.045-9.883-.045v18.188H287.788V347.438h27.854a20.72,20.72,0,0,1,8.392,1.712,22.2,22.2,0,0,1,6.85,4.66,21.952,21.952,0,0,1,4.66,6.941,21.316,21.316,0,0,1,1.712,8.478,20.726,20.726,0,0,1-3.47,11.779A21.51,21.51,0,0,1,324.776,388.737Zm-24.6-10.282h15.466a8.977,8.977,0,0,0,6.674-2.769,10.109,10.109,0,0,0,2.722-7.421,9.768,9.768,0,0,0-.74-3.734,11.12,11.12,0,0,0-2.022-3.209,9.809,9.809,0,0,0-2.992-2.239,8.2,8.2,0,0,0-3.642-.839H300.176v20.21Zm38.577,30.492H323.11l-9.4-11.6,10.282-6.672Z" transform="translate(-167.759 -346.651)"/>
      <path id="Tracé_3" data-name="Tracé 3" class="cls-1" d="M380.864,346.969a29.492,29.492,0,0,1,12.126,2.5A30.535,30.535,0,0,1,409.2,366.253a32.468,32.468,0,0,1,2.329,12.259,33.032,33.032,0,0,1-1.673,10.544,30.739,30.739,0,0,1-4.744,9.049,30.354,30.354,0,0,1-7.335,6.9,28.821,28.821,0,0,1-9.357,4.081l-6.149-10.453a15.8,15.8,0,0,0,6.719-1.982,18.469,18.469,0,0,0,5.229-4.39,20.074,20.074,0,0,0,3.427-6.239,22.844,22.844,0,0,0,1.227-7.513,22.466,22.466,0,0,0-1.359-7.822,20.446,20.446,0,0,0-3.734-6.411,17.325,17.325,0,0,0-5.669-4.306,17.418,17.418,0,0,0-14.5,0,17.913,17.913,0,0,0-5.709,4.306,19.952,19.952,0,0,0-3.779,6.411,23.185,23.185,0,0,0,0,15.644,19.9,19.9,0,0,0,3.779,6.411,18.052,18.052,0,0,0,5.709,4.311,16.632,16.632,0,0,0,7.25,1.581v11.425a30.011,30.011,0,0,1-21.876-9.233,31.224,31.224,0,0,1-6.458-10.059,33.419,33.419,0,0,1,0-24.516,30.568,30.568,0,0,1,16.207-16.785A29.528,29.528,0,0,1,380.864,346.969Z" transform="translate(-125.433 -346.969)"/>
      <path id="Tracé_4" data-name="Tracé 4" class="cls-1" d="M433.52,383.553a15.922,15.922,0,0,0,1.1,5.932,14.979,14.979,0,0,0,7.553,8.131,12.691,12.691,0,0,0,5.493,1.227V409.65a26.1,26.1,0,0,1-10.368-2.068,26.944,26.944,0,0,1-8.478-5.662,26.187,26.187,0,0,1-7.776-18.807V347.438H433.52v36.115Zm40.6-36.115v35.676a25.381,25.381,0,0,1-1.536,8.832,27.335,27.335,0,0,1-4.221,7.553,26.748,26.748,0,0,1-6.37,5.8,27.181,27.181,0,0,1-8,3.564l-5.446-10.106a12.38,12.38,0,0,0,5.1-1.45,14.841,14.841,0,0,0,4.174-3.339,15.389,15.389,0,0,0,2.808-4.744,15.9,15.9,0,0,0,1.012-5.67.182.182,0,0,0-.04-.131.163.163,0,0,1-.045-.131c0-.178.013-.2.045-.092s.04.02.04-.3V347.438Z" transform="translate(-77.391 -346.651)"/>
      <path id="Tracé_5" data-name="Tracé 5" class="cls-1" d="M523.693,349.15a22.609,22.609,0,0,1,6.942,4.66,21.767,21.767,0,0,1,4.7,6.9,21.621,21.621,0,0,1,0,16.87,21.23,21.23,0,0,1-4.7,6.857,23.055,23.055,0,0,1-6.942,4.613,21.014,21.014,0,0,1-8.439,1.713H508.4l-6.679-12.3h13.529a9.008,9.008,0,0,0,3.648-.748,8.413,8.413,0,0,0,2.947-2.106,10.567,10.567,0,0,0,1.975-3.247,11.256,11.256,0,0,0,.748-4.174,9.685,9.685,0,0,0-.748-3.741,11.613,11.613,0,0,0-1.975-3.2,10.012,10.012,0,0,0-2.947-2.291,7.885,7.885,0,0,0-3.648-.873H499.7v50.873H487.49V347.438h27.763A21.013,21.013,0,0,1,523.693,349.15Z" transform="translate(-32.332 -346.651)"/>
      <path id="Tracé_6" data-name="Tracé 6" class="cls-1" d="M592.789,347.438l.085,10.282h-28.9l-.092,41.037h28.911v10.19H551.582V347.438Zm-7.29,36.995H571.792l-5.716-11.423H585.5Z" transform="translate(11.132 -346.651)"/>
    </g>
    <g id="Groupe_2" data-name="Groupe 2" transform="translate(215.199 580.146)">
      <path id="Tracé_7" data-name="Tracé 7" class="cls-2" d="M287.608,405.077a45.152,45.152,0,0,1,13.878,9.312,43.354,43.354,0,0,1,9.4,13.8,42.755,42.755,0,0,1-9.4,47.448,46,46,0,0,1-13.878,9.226,42.033,42.033,0,0,1-16.87,3.425H257.03l-13.36-24.6h27.067a18.031,18.031,0,0,0,7.29-1.5,16.986,16.986,0,0,0,5.887-4.219,21.247,21.247,0,0,0,3.957-6.5,22.594,22.594,0,0,0,1.489-8.347,19.429,19.429,0,0,0-1.489-7.468,23.238,23.238,0,0,0-3.957-6.417,19.8,19.8,0,0,0-5.887-4.566,15.8,15.8,0,0,0-7.29-1.759H239.628V524.665H215.2V401.652h55.538A42.005,42.005,0,0,1,287.608,405.077Z" transform="translate(-215.199 -400.065)"/>
      <path id="Tracé_8" data-name="Tracé 8" class="cls-2" d="M354.536,484.245a44.131,44.131,0,0,1-7.822,2.814,48.352,48.352,0,0,1-8.787,1.143c-3.457.17-7.736.237-12.828.17s-11.687-.084-19.77-.084v36.377H280.545V401.652h55.709a41.368,41.368,0,0,1,16.785,3.425,44.405,44.405,0,0,1,13.709,9.312,43.917,43.917,0,0,1,9.31,13.883,42.513,42.513,0,0,1,3.432,16.956,41.353,41.353,0,0,1-6.943,23.551A42.994,42.994,0,0,1,354.536,484.245Zm-49.207-20.559h30.925a18.03,18.03,0,0,0,13.36-5.538q5.445-5.53,5.447-14.848a19.258,19.258,0,0,0-1.5-7.468,22.1,22.1,0,0,0-4.041-6.417,19.648,19.648,0,0,0-5.972-4.482,16.485,16.485,0,0,0-7.3-1.666H305.329v40.42Zm77.146,60.979H351.2l-18.807-23.2,20.566-13.36Z" transform="translate(-170.885 -400.065)"/>
      <path id="Tracé_9" data-name="Tracé 9" class="cls-2" d="M403.879,400.706a58.9,58.9,0,0,1,24.246,5.013,61.151,61.151,0,0,1,32.427,33.563A64.757,64.757,0,0,1,465.2,463.8a66.273,66.273,0,0,1-3.335,21.089,62.107,62.107,0,0,1-9.495,18.1A60.85,60.85,0,0,1,437.7,516.783a57.515,57.515,0,0,1-18.713,8.169l-12.3-20.911a31.494,31.494,0,0,0,13.445-3.95,36.73,36.73,0,0,0,10.453-8.787,40.313,40.313,0,0,0,6.857-12.48A45.665,45.665,0,0,0,439.9,463.8a44.912,44.912,0,0,0-2.722-15.637,40.753,40.753,0,0,0-7.474-12.828,34.844,34.844,0,0,0-11.332-8.616,34.807,34.807,0,0,0-29,0,35.815,35.815,0,0,0-11.423,8.616,39.778,39.778,0,0,0-7.553,12.828,46.162,46.162,0,0,0,0,31.281,39.8,39.8,0,0,0,7.553,12.828,35.72,35.72,0,0,0,11.423,8.609,33.026,33.026,0,0,0,14.5,3.163v22.848a60.1,60.1,0,0,1-43.761-18.453,62.585,62.585,0,0,1-12.92-20.124,66.9,66.9,0,0,1,0-49.03,61.146,61.146,0,0,1,32.429-33.563A58.892,58.892,0,0,1,403.879,400.706Z" transform="translate(-128.84 -400.706)"/>
      <path id="Tracé_10" data-name="Tracé 10" class="cls-2" d="M459.5,428.011l24.785,13.531V483.72a38.813,38.813,0,0,1-3.256,15.815,43.019,43.019,0,0,1-8.787,13.006,40.881,40.881,0,0,1-29.258,12.125h-27.77V500.236h27.77a15.935,15.935,0,0,0,6.5-1.319,17.026,17.026,0,0,0,5.269-3.6,15.912,15.912,0,0,0,3.517-5.268,16.433,16.433,0,0,0,1.227-6.326Zm24.785-26.359v22.841h-47.8l-12.126-22.841Z" transform="translate(-79.557 -400.065)"/>
      <path id="Tracé_11" data-name="Tracé 11" class="cls-2" d="M545.6,401.652l.176,20.557H487.965l-.178,82.07H545.6v20.386H463.18V401.652Zm-14.588,73.984H503.6l-11.425-22.848h38.839Z" transform="translate(-47.032 -400.065)"/>
      <path id="Tracé_12" data-name="Tracé 12" class="cls-2" d="M580.083,401.652V524.665h-25.3V423.089h-36.2V401.652Zm3.693,0h32.508v21.437H594.493Z" transform="translate(-9.463 -400.065)"/>
    </g>
    <g id="Groupe_3" data-name="Groupe 3" transform="translate(216.28 136.102)">
      <path id="Tracé_13" data-name="Tracé 13" class="cls-1" d="M366.473,168.2s-9.968,65.731,7.317,74.62c2.561,1.28,12.071-4.756,14.266-4.024s-15.363,15.363-12.254,17.924,12.62-21.034,45.723-12.254c10.973,4.205,14.632,16.459,14.632,16.459A51.267,51.267,0,0,0,419.143,252a34.687,34.687,0,0,0-35.5,10.247c-7.28,8.038-13.92,19.576-16.988,24.464-5.852,9.327-6.29,8.468-11.339,2.561-1.245-1.457-8.221-9.977-8.6-10.973-4.939-1.829-5.67-.183-8.778-5.488-4.024,3.841-10.608,3.292-10.608,3.292s8.961-33.469,10.242-66.757c3.108,3.11,4.023,34.385,4.023,34.385s4.39-7.134,6.768-11.888c2.744,1.28-.183,28.9-.183,28.9s10.059-28.347,10.242-51.574A113.6,113.6,0,0,1,366.473,168.2Z" transform="translate(-140.235 -114.337)"/>
      <path id="Tracé_14" data-name="Tracé 14" class="cls-1" d="M351.762,276.375s3.788.156,25.429-15.318c-3.13,5.721-16.379,19.834-23.412,27.147a28.154,28.154,0,0,0-5.845,9.265c-.93,2.363-2.3,4.741-4.069,4.8-3.536.123-3.89,5.37-14.754,5.244-12.019-.141-14.9,1.207-25.746-1.6s-6.293-16.708-8.169-19.388a10.517,10.517,0,0,1-1.952-6.828c0-2.438-.975-3.413-11.827-10.851-9.923-6.8-35.144-41.87-35.87-57.589a1.9,1.9,0,0,1,3.163-1.493c17.582,15.763,26.988,26.045,36.975,28.6-2.559.609-14.63-1.707-21.7-6.706-6.585-5.974,10.608,15,23.531,23.531s17.681,11.1,18.9,13.534,5.731.122,5.731.122a20.3,20.3,0,0,1-7.56,8.9c-5.608,3.658,5.487,7.56,5.487,7.56a2.393,2.393,0,0,1,1.341,2.073c0,1.463,3.536.975,4.39-.488s-1.442,5.514,1.218,7.194c2.318,1.463,5.731-8.292,12.559-10.851,1.707,3.17-1.586,7.8-1.586,7.8s-2.072,7.315-7.072,5.12c0,0,1.158,2.774,9.45,4.6s11.339-6.676,12.62-10.334c.725-2.071-4.877-3.536.366-6.949C348.478,279.335,348.584,277.315,351.762,276.375Z" transform="translate(-195.702 -86.478)"/>
      <path id="Tracé_15" data-name="Tracé 15" class="cls-1" d="M298.591,235.391c-11.175,2.16-14.343,5.162-15.912.456-2.01-6.035-11.613-21.581-13.259-23.959a2.485,2.485,0,0,1,.822-3.749s12.5,16.917,24.6,18.837c0,0-3.658,8.6,3.932,3.658a18.466,18.466,0,0,0,4.9-4c2.237-2.616,2.118-1.843,2.118-1.843s-.844,5.733-2.307,7.3S300.667,234.99,298.591,235.391Z" transform="translate(-179.894 -87.25)"/>
      <path id="Tracé_16" data-name="Tracé 16" class="cls-1" d="M286,163.909c-1.794-1.65-3.595.28-2.255,2.318,1.571,2.391,3.9,7.194,13.868,11.828,4.6,2.136,7.59,4.571,11.705,3.2a28.755,28.755,0,0,1,11.249-1.1s-.183,1.829-5.122,4.481c-5.3,2.2-6.583,5.853-6.583,5.853s4.3-2.378,5.4-2.287c2.027,8.109-.646,9.569-2.937,16.995a41.179,41.179,0,0,0-1.739,10.05,108.285,108.285,0,0,1-3.737,23.526c-1.007,8.686-4.756,7.223-4.756,7.223,2.651,5.214.552,8.725.552,8.725l-.918-3.877c-.918-3.878-13.168-5.4-13.168-5.4s1.92-1.373,6.127-3.934,5.761-10.488,5.761-13.076c0-2.269-1.737-12.8-1.1-17.01s.275-11.613-.183-16.093-13.027-10.45-13.85-11c-.718-.478-9.275-6.651-6.214-16.844,1.005-3.348,2.5-6.246,5.707-7.639,2.286-1,5.852-.824,6.127,2.559,0,0,.67,7.072-.884,4.513S286,163.909,286,163.909Z" transform="translate(-174.071 -120.353)"/>
      <path id="Tracé_17" data-name="Tracé 17" class="cls-1" d="M320.845,173.624s2.6-12.078,10.121-18.045c4.288-3.4,2.581-3.524,6.34-6.828,3.811-3.35,6.828-4.145,21.459-5.488,5.018,0,7.968-1.057,9.436-1.814a33.222,33.222,0,0,1,5.07-2.2,55.228,55.228,0,0,1,17.562-2.571c6.828-.854,7.072-1.463,20.606,3.536s18.533,5.12,18.533,5.12-7.8,2.683-15.118,1.1c0,0,5.363,8.292,7.558,10s-4.828-.415-10.973-3.17c-5.3-2.378-13.046-3.536-22.435,1.586s-23.044,12.192-32.554,26.092c-1.341,3.781-5.487,3.17-5.487,3.17s8.535,19.631,3.781,14.875-18.168-20.361-30.727-19.263l2.8,7.558a29.969,29.969,0,0,1,9.878,11.584c-2.318-.609-9.267-5.488-9.267-5.488s-1.952,3.293.121,5.122,10.121,13.9,8.658,19.265a25.683,25.683,0,0,0-4.39-5.122,13.7,13.7,0,0,1-5.242-5.487c-1.95-3.779-2.943-8.59-3.17-3.779s-1.1,9.633-9.023,6.706c1.1,3.049,4.147,3.536,8.169,3.536.411,0-7.681,5.122-11.339-.243-3.779-4.267-6.461-4.633-5.365-10.487,2.44.611.977,1.829,3.781,1.586-1.707-2.682-.122-7.56-.122-7.56s-10.73-2.316-8.535-16.582,19.143-13.291,19.143-13.291Z" transform="translate(-158.315 -136.102)"/>
      <path id="Tracé_18" data-name="Tracé 18" class="cls-1" d="M309.973,215.89c-11.43-2.927-10.7,2.744-10.7,2.744Z" transform="translate(-159.27 -82.563)"/>
      <path id="Tracé_19" data-name="Tracé 19" class="cls-1" d="M302.54,222.768s6.951-3.568,8.139-3.658a16.034,16.034,0,0,1,2.287,0s-5.937,9.248-8.231,6.493S302.54,222.768,302.54,222.768Z" transform="translate(-157.05 -79.839)"/>
      <path id="Tracé_20" data-name="Tracé 20" class="cls-1" d="M302.758,225.2s3.476,2.651,10.151,1.28C305.5,235.255,302.758,225.2,302.758,225.2Z" transform="translate(-156.902 -75.683)"/>
      <path id="Tracé_21" data-name="Tracé 21" class="cls-1" d="M706.728,375.533c17.191-4.024,9.876-11.341,9.876-11.341S702.7,349.928,703.8,332c7.315-22.313-19.752-34.018-26.7-44.625s8.412-40.969,8.412-40.969,7.8,9.389,14.023,13.534c1.007,5.415,3.135,7.261,8.147,9.849,2.858,1.475,3.673,1.718,5.944,4,1.218,1.222.426-.186-.8-7.627-1.952-11.826-11.584-8.778-11.584-8.778-4.754-4.388-11.7-16.093-11.7-16.093,20.117-30-5.191-60.947-9.947-62.776,4.372,12.276,1.534,50.338,1.534,50.338s3.841-67.185-41.7-72.425c8.414,13.534,17.558,32.19,3.658,60.356s-35.847,29.628-35.847,29.628,7.1-14.112,3.417-12.1c-31.467,12.051-60.178,15.1-74.313,12.385-12.259-2.354-15.827-25.869-16.161-33.568s-4-11.452-4-11.452-4.9,3.16,4.759,34.978c1.673,30.128,1.673,31.8-22.429,58.916,80.674,31.8,110.132-11.047,115.488-10.378s22.427,15.733,22.427,15.733-3.346,42.179-19.75,59.92c-25.441-5.021-120.508-5.021-120.508-5.021s-1-2.344-.334-9.708a42.021,42.021,0,0,0-1.124-12.081,55.731,55.731,0,0,1-1.064-7.4A14.561,14.561,0,0,0,490.477,319c-4.351-5.691-7.03-16.4-7.03-16.4-4.687,2.009-19.75,24.771-19.75,24.771,14.06,26.11,8.369,29.458,8.369,29.458L439.929,358.5c-1.688-3.205-1.338-11.254-1.338-11.254s3.012-8.5,1-15.192c-2.94-6.632-5.691-20.084-5.691-20.084s-3.012,7.7-2.009,15.063.67,16.068-2.009,19.75-5.791,13.509-5.791,13.509-84.862,2.318-208.253,51.089c298.48-44.382,605.74,0,605.74,0C804.026,400.407,706.728,375.533,706.728,375.533ZM685.533,364.7c-5.671,4.3-3.385,6.31-3.385,6.31s-21.3-4.34-30.237-5.375a6.021,6.021,0,0,1-5.336-6.743c.5-3.551,2.7-7.268,6.4-8.092,6.585-1.463,6.206-11.388,6.219-15.362s.732-13.168.732-13.168,15.362,12.437,19.02,17.557S692.772,359.212,685.533,364.7Z" transform="translate(-215.843 -122.32)"/>
    </g>
  </g>
</svg>
