<svg id="Groupe_41" data-name="Groupe 41" xmlns="http://www.w3.org/2000/svg" width="126.954" height="119.298" viewBox="0 0 126.954 119.298">
  <defs>
    <style>
      .cls-1 {
        fill: #0d1319;
      }

      .cls-2 {
        fill: #c21522;
      }

      .cls-3 {
        fill: #004cac;
      }
    </style>
  </defs>
  <g id="Groupe_38" data-name="Groupe 38" transform="translate(0.374 74.032)">
    <path id="Tracé_226" data-name="Tracé 226" class="cls-1" d="M226.686,327.593c.012.184.019.368.019.552a6.785,6.785,0,0,1-.487,2.564,6.528,6.528,0,0,1-1.343,2.1,6.285,6.285,0,0,1-4.567,1.92,6.447,6.447,0,0,1-2.564-.515,6.52,6.52,0,0,1-3.5-3.5,6.643,6.643,0,0,1,0-5.129,6.524,6.524,0,0,1,3.5-3.5,6.448,6.448,0,0,1,2.564-.515,6.305,6.305,0,0,1,3.244.855,6.775,6.775,0,0,1,2.345,2.251l-2.151,1.38a4.012,4.012,0,0,0-1.407-1.591,3.619,3.619,0,0,0-2.03-.6,3.561,3.561,0,0,0-1.545.34,4.04,4.04,0,0,0-1.251.918,4.513,4.513,0,0,0,0,6.049,4.062,4.062,0,0,0,1.251.92,3.676,3.676,0,0,0,2.794.119,3.372,3.372,0,0,0,1.049-.626,4.276,4.276,0,0,0,.8-.946,4.145,4.145,0,0,0,.505-1.2h-3.492l-1.177-2.39h7.39C226.656,327.227,226.674,327.409,226.686,327.593Z" transform="translate(-213.727 -321.546)"/>
    <path id="Tracé_227" data-name="Tracé 227" class="cls-1" d="M292.125,330.617a4.541,4.541,0,0,1-.818.294,4.949,4.949,0,0,1-.919.12c-.362.019-.809.025-1.343.019s-1.222-.01-2.067-.01v3.805h-2.592V321.977h5.828a4.333,4.333,0,0,1,1.756.358,4.642,4.642,0,0,1,1.433.975,4.584,4.584,0,0,1,.975,1.452,4.456,4.456,0,0,1,.358,1.774A4.336,4.336,0,0,1,294.01,329,4.5,4.5,0,0,1,292.125,330.617Zm-5.147-2.151h3.236a1.878,1.878,0,0,0,1.4-.579,2.115,2.115,0,0,0,.57-1.553,2.041,2.041,0,0,0-.155-.781,2.33,2.33,0,0,0-.423-.671,2.049,2.049,0,0,0-.626-.468,1.712,1.712,0,0,0-.762-.176h-3.236v4.228Zm8.071,6.379h-3.273l-1.967-2.427,2.151-1.4Z" transform="translate(-259.276 -321.812)"/>
    <path id="Tracé_228" data-name="Tracé 228" class="cls-1" d="M352.461,321.513a6.173,6.173,0,0,1,2.537.523,6.389,6.389,0,0,1,3.392,3.512,6.8,6.8,0,0,1,.487,2.564,6.911,6.911,0,0,1-.35,2.206,6.442,6.442,0,0,1-.993,1.893A6.353,6.353,0,0,1,356,333.655a6.024,6.024,0,0,1-1.958.854l-1.286-2.187a3.312,3.312,0,0,0,1.406-.415,3.873,3.873,0,0,0,1.094-.918,4.2,4.2,0,0,0,.716-1.306,4.769,4.769,0,0,0,.257-1.572,4.7,4.7,0,0,0-.284-1.636,4.286,4.286,0,0,0-.781-1.341,3.628,3.628,0,0,0-1.186-.9,3.643,3.643,0,0,0-3.034,0,3.745,3.745,0,0,0-1.194.9,4.182,4.182,0,0,0-.791,1.341,4.851,4.851,0,0,0,0,3.273,4.17,4.17,0,0,0,.791,1.341,3.769,3.769,0,0,0,1.194.9,3.477,3.477,0,0,0,1.517.331v2.39a6.279,6.279,0,0,1-4.577-1.932,6.531,6.531,0,0,1-1.351-2.1,6.992,6.992,0,0,1,0-5.129,6.393,6.393,0,0,1,3.391-3.512A6.178,6.178,0,0,1,352.461,321.513Z" transform="translate(-299.022 -321.513)"/>
    <path id="Tracé_229" data-name="Tracé 229" class="cls-1" d="M418.643,329.533a3.321,3.321,0,0,0,.231,1.241,3.13,3.13,0,0,0,1.58,1.7,2.65,2.65,0,0,0,1.149.257v2.261a5.458,5.458,0,0,1-2.169-.432,5.631,5.631,0,0,1-1.774-1.185,5.476,5.476,0,0,1-1.627-3.934v-7.464h2.61v7.556Zm8.493-7.556v7.464a5.309,5.309,0,0,1-.321,1.848,5.712,5.712,0,0,1-.883,1.58,5.6,5.6,0,0,1-1.333,1.214,5.685,5.685,0,0,1-1.673.745l-1.139-2.114a2.589,2.589,0,0,0,1.067-.3,3.1,3.1,0,0,0,.873-.7,3.221,3.221,0,0,0,.587-.993,3.326,3.326,0,0,0,.211-1.186.039.039,0,0,0-.008-.027.033.033,0,0,1-.01-.027c0-.037,0-.043.01-.019s.008,0,.008-.063v-7.419Z" transform="translate(-344.137 -321.812)"/>
    <path id="Tracé_230" data-name="Tracé 230" class="cls-1" d="M489.249,322.335a4.728,4.728,0,0,1,1.452.975,4.55,4.55,0,0,1,.983,1.443,4.476,4.476,0,0,1-.983,4.964,4.828,4.828,0,0,1-1.452.965,4.387,4.387,0,0,1-1.765.359H486.05l-1.4-2.574h2.831a1.881,1.881,0,0,0,.763-.157,1.759,1.759,0,0,0,.617-.441,2.213,2.213,0,0,0,.413-.68,2.355,2.355,0,0,0,.156-.873,2.027,2.027,0,0,0-.156-.782,2.436,2.436,0,0,0-.413-.67,2.091,2.091,0,0,0-.617-.479,1.653,1.653,0,0,0-.763-.182H484.23v10.643h-2.555V321.977h5.808A4.393,4.393,0,0,1,489.249,322.335Z" transform="translate(-386.45 -321.812)"/>
    <path id="Tracé_231" data-name="Tracé 231" class="cls-1" d="M553.612,321.977l.018,2.151h-6.047l-.019,8.585h6.049v2.132h-8.621V321.977Zm-1.525,7.74h-2.868l-1.2-2.39h4.063Z" transform="translate(-427.265 -321.812)"/>
  </g>
  <g id="Groupe_39" data-name="Groupe 39" transform="translate(0 92.899)">
    <path id="Tracé_232" data-name="Tracé 232" class="cls-2" d="M227.825,376.252a9.448,9.448,0,0,1,2.9,1.948,9.077,9.077,0,0,1,1.967,2.887,8.944,8.944,0,0,1-1.967,9.927,9.624,9.624,0,0,1-2.9,1.93,8.793,8.793,0,0,1-3.53.716h-2.868l-2.8-5.147H224.3a3.774,3.774,0,0,0,1.525-.313,3.553,3.553,0,0,0,1.231-.882,4.441,4.441,0,0,0,.828-1.361,4.723,4.723,0,0,0,.312-1.746,4.065,4.065,0,0,0-.312-1.562,4.854,4.854,0,0,0-.828-1.343,4.143,4.143,0,0,0-1.231-.956,3.311,3.311,0,0,0-1.525-.368h-6.509v21.288h-5.111V375.536H224.3A8.793,8.793,0,0,1,227.825,376.252Z" transform="translate(-212.676 -375.204)"/>
    <path id="Tracé_233" data-name="Tracé 233" class="cls-2" d="M292.712,392.815a9.267,9.267,0,0,1-1.637.589,10.153,10.153,0,0,1-1.838.239c-.724.036-1.619.049-2.684.036s-2.445-.018-4.136-.018v7.611h-5.185V375.536h11.655a8.659,8.659,0,0,1,3.512.716,9.286,9.286,0,0,1,2.868,1.948,9.189,9.189,0,0,1,1.948,2.9,8.9,8.9,0,0,1,.718,3.547,8.651,8.651,0,0,1-1.452,4.927A9,9,0,0,1,292.712,392.815Zm-10.295-4.3h6.47a3.774,3.774,0,0,0,2.8-1.159,4.239,4.239,0,0,0,1.139-3.107,4.035,4.035,0,0,0-.313-1.562,4.621,4.621,0,0,0-.846-1.343,4.111,4.111,0,0,0-1.249-.937,3.45,3.45,0,0,0-1.526-.349h-6.47v8.456Zm16.14,12.758h-6.544l-3.934-4.853,4.3-2.795Z" transform="translate(-254.29 -375.204)"/>
    <path id="Tracé_234" data-name="Tracé 234" class="cls-2" d="M351.314,374.6a12.319,12.319,0,0,1,5.072,1.049,12.791,12.791,0,0,1,6.784,7.022,13.549,13.549,0,0,1,.973,5.129,13.874,13.874,0,0,1-.7,4.412A13.006,13.006,0,0,1,361.46,396a12.745,12.745,0,0,1-3.069,2.886,12.045,12.045,0,0,1-3.915,1.709L351.9,396.22a6.588,6.588,0,0,0,2.813-.826,7.683,7.683,0,0,0,2.187-1.838,8.43,8.43,0,0,0,1.434-2.611,9.547,9.547,0,0,0,.515-3.144,9.4,9.4,0,0,0-.57-3.271,8.518,8.518,0,0,0-1.564-2.684,7.3,7.3,0,0,0-2.371-1.8,7.283,7.283,0,0,0-6.066,0,7.5,7.5,0,0,0-2.39,1.8,8.332,8.332,0,0,0-1.58,2.684,9.659,9.659,0,0,0,0,6.544,8.332,8.332,0,0,0,1.58,2.684,7.476,7.476,0,0,0,2.39,1.8,6.907,6.907,0,0,0,3.034.662V401a12.576,12.576,0,0,1-9.155-3.861,13.107,13.107,0,0,1-2.7-4.21,14,14,0,0,1,0-10.257,12.79,12.79,0,0,1,6.785-7.022A12.321,12.321,0,0,1,351.314,374.6Z" transform="translate(-293.772 -374.601)"/>
    <path id="Tracé_235" data-name="Tracé 235" class="cls-2" d="M419.542,381.051l5.185,2.831v8.824a8.121,8.121,0,0,1-.681,3.309,9,9,0,0,1-1.838,2.721,8.553,8.553,0,0,1-6.121,2.537h-5.809v-5.111h5.809a3.339,3.339,0,0,0,1.361-.276,3.564,3.564,0,0,0,1.1-.754,3.32,3.32,0,0,0,.736-1.1,3.436,3.436,0,0,0,.257-1.323Zm5.185-5.515v4.778h-10l-2.537-4.778Z" transform="translate(-340.053 -375.204)"/>
    <path id="Tracé_236" data-name="Tracé 236" class="cls-2" d="M474.9,375.536l.037,4.3h-12.1l-.037,17.17h12.1v4.265H457.659V375.536Zm-3.052,15.478h-5.736l-2.39-4.78h8.126Z" transform="translate(-370.596 -375.204)"/>
    <path id="Tracé_237" data-name="Tracé 237" class="cls-2" d="M525.255,375.536v25.736h-5.293V380.021h-7.574v-4.485Zm.773,0h6.8v4.485H528.27Z" transform="translate(-405.875 -375.204)"/>
  </g>
  <g id="Groupe_40" data-name="Groupe 40" transform="translate(0.226)">
    <path id="Tracé_238" data-name="Tracé 238" class="cls-3" d="M331.644,144.9s-2.085,13.752,1.531,15.611c.536.268,2.525-1,2.984-.842s-3.214,3.214-2.564,3.75,2.64-4.4,9.566-2.563a5.737,5.737,0,0,1,3.061,3.444,10.723,10.723,0,0,0-3.559-1.867,7.258,7.258,0,0,0-7.427,2.144,36.683,36.683,0,0,0-3.554,5.118c-1.224,1.951-1.316,1.772-2.372.536-.261-.3-1.72-2.087-1.8-2.3-1.033-.383-1.186-.038-1.837-1.148a3.2,3.2,0,0,1-2.219.689,72.946,72.946,0,0,0,2.143-13.966c.65.65.842,7.193.842,7.193s.918-1.492,1.415-2.487c.574.268-.038,6.045-.038,6.045a39.9,39.9,0,0,0,2.143-10.79A23.768,23.768,0,0,1,331.644,144.9Z" transform="translate(-284.313 -133.636)"/>
    <path id="Tracé_239" data-name="Tracé 239" class="cls-3" d="M264.876,199.526s.793.033,5.32-3.2A46.564,46.564,0,0,1,265.3,202a5.891,5.891,0,0,0-1.223,1.939c-.194.494-.482.991-.851,1-.74.026-.814,1.123-3.087,1.1-2.515-.03-3.116.252-5.387-.334s-1.316-3.5-1.709-4.056a2.2,2.2,0,0,1-.408-1.428c0-.51-.2-.714-2.475-2.27-2.076-1.423-7.353-8.759-7.5-12.048a.4.4,0,0,1,.662-.313c3.679,3.3,5.646,5.449,7.736,5.984a8.759,8.759,0,0,1-4.54-1.4c-1.377-1.25,2.219,3.138,4.923,4.923s3.7,2.321,3.954,2.832,1.2.026,1.2.026a4.242,4.242,0,0,1-1.581,1.862c-1.173.766,1.148,1.582,1.148,1.582a.5.5,0,0,1,.281.434c0,.306.74.2.918-.1s-.3,1.154.255,1.505c.485.306,1.2-1.735,2.628-2.271.357.664-.332,1.633-.332,1.633s-.434,1.531-1.479,1.072c0,0,.242.58,1.977.963s2.372-1.4,2.64-2.162c.152-.433-1.02-.74.076-1.454C264.189,200.146,264.211,199.722,264.876,199.526Z" transform="translate(-232.226 -159.797)"/>
    <path id="Tracé_240" data-name="Tracé 240" class="cls-3" d="M271.9,190.065c-2.338.452-3,1.08-3.329.1a35.759,35.759,0,0,0-2.774-5.012.52.52,0,0,1,.172-.784s2.615,3.539,5.146,3.941c0,0-.765,1.8.823.765a3.864,3.864,0,0,0,1.025-.837c.468-.547.443-.385.443-.385a4.308,4.308,0,0,1-.483,1.527A1.907,1.907,0,0,1,271.9,190.065Z" transform="translate(-247.071 -159.072)"/>
    <path id="Tracé_241" data-name="Tracé 241" class="cls-3" d="M275.955,137.1c-.375-.345-.752.059-.472.485a5.725,5.725,0,0,0,2.9,2.475c.962.447,1.588.956,2.449.67a6.014,6.014,0,0,1,2.353-.23s-.038.382-1.072.938a2.374,2.374,0,0,0-1.377,1.224,4.619,4.619,0,0,1,1.129-.478c.424,1.7-.135,2-.614,3.555a8.6,8.6,0,0,0-.364,2.1,22.635,22.635,0,0,1-.782,4.922c-.21,1.817-.995,1.511-.995,1.511a1.948,1.948,0,0,1,.115,1.825l-.192-.811c-.192-.811-2.755-1.129-2.755-1.129s.4-.287,1.281-.823,1.205-2.194,1.205-2.736a26.365,26.365,0,0,1-.23-3.558,16.555,16.555,0,0,0-.038-3.367c-.1-.937-2.725-2.186-2.9-2.3a3.238,3.238,0,0,1-1.3-3.524,2.277,2.277,0,0,1,1.194-1.6c.478-.208,1.225-.172,1.282.536,0,0,.14,1.479-.185.944A1.358,1.358,0,0,0,275.955,137.1Z" transform="translate(-252.538 -127.986)"/>
    <path id="Tracé_242" data-name="Tracé 242" class="cls-3" d="M301.338,121.047a7.523,7.523,0,0,1,2.117-3.775c.9-.711.54-.737,1.326-1.428s1.429-.868,4.49-1.148a4.309,4.309,0,0,0,1.974-.38,6.957,6.957,0,0,1,1.061-.46,11.562,11.562,0,0,1,3.674-.538c1.429-.178,1.479-.306,4.311.74a14.657,14.657,0,0,0,3.878,1.071,6.742,6.742,0,0,1-3.163.23,14.839,14.839,0,0,0,1.582,2.092c.459.357-1.01-.087-2.3-.664a5.085,5.085,0,0,0-4.694.332c-1.964,1.071-4.821,2.551-6.811,5.459a1.065,1.065,0,0,1-1.148.663s1.785,4.107.791,3.112-3.8-4.26-6.428-4.03l.586,1.581a6.271,6.271,0,0,1,2.067,2.423,12.049,12.049,0,0,1-1.939-1.148s-.408.689.026,1.071,2.117,2.908,1.811,4.03a5.375,5.375,0,0,0-.918-1.071,2.865,2.865,0,0,1-1.1-1.148c-.408-.791-.616-1.8-.663-.791s-.23,2.015-1.888,1.4c.23.638.867.74,1.709.74.086,0-1.607,1.071-2.372-.051-.791-.893-1.352-.969-1.122-2.194.51.128.2.383.791.332a2.3,2.3,0,0,1-.026-1.581s-2.245-.485-1.785-3.469,4-2.781,4-2.781Z" transform="translate(-267.335 -113.197)"/>
    <path id="Tracé_243" data-name="Tracé 243" class="cls-3" d="M297.966,191.367c-2.391-.612-2.239.574-2.239.574Z" transform="translate(-266.437 -163.473)"/>
    <path id="Tracé_244" data-name="Tracé 244" class="cls-3" d="M298.961,195.934a13.652,13.652,0,0,1,1.7-.765,3.372,3.372,0,0,1,.478,0s-1.242,1.935-1.722,1.358S298.961,195.934,298.961,195.934Z" transform="translate(-268.522 -166.032)"/>
    <path id="Tracé_245" data-name="Tracé 245" class="cls-3" d="M299.177,201.213a2.712,2.712,0,0,0,2.123.268C299.751,203.318,299.177,201.213,299.177,201.213Z" transform="translate(-268.662 -169.933)"/>
    <path id="Tracé_246" data-name="Tracé 246" class="cls-3" d="M316.011,179.115c3.6-.842,2.066-2.373,2.066-2.373s-2.908-2.985-2.679-6.734c1.531-4.668-4.132-7.117-5.586-9.336s1.76-8.571,1.76-8.571a18.3,18.3,0,0,0,2.934,2.831,2.522,2.522,0,0,0,1.7,2.061,3.64,3.64,0,0,1,1.243.836c.255.256.089-.039-.167-1.6-.408-2.475-2.423-1.837-2.423-1.837a20.642,20.642,0,0,1-2.449-3.367c4.209-6.275-1.086-12.751-2.081-13.133.914,2.568.321,10.531.321,10.531s.8-14.056-8.724-15.153c1.76,2.832,3.673,6.735.766,12.627s-7.5,6.2-7.5,6.2,1.485-2.953.715-2.532c-6.583,2.521-12.59,3.159-15.547,2.591-2.565-.493-3.311-5.412-3.381-7.023a3.789,3.789,0,0,0-.836-2.4s-1.026.661,1,7.318c.35,6.3.35,6.653-4.692,12.326,16.878,6.653,23.041-2.311,24.161-2.171s4.692,3.292,4.692,3.292-.7,8.824-4.132,12.536c-5.322-1.051-25.212-1.051-25.212-1.051a4.913,4.913,0,0,1-.07-2.031,8.792,8.792,0,0,0-.235-2.527,11.641,11.641,0,0,1-.223-1.548,3.047,3.047,0,0,0-.663-1.6,11.633,11.633,0,0,1-1.471-3.432c-.981.42-4.132,5.183-4.132,5.183,2.941,5.462,1.751,6.163,1.751,6.163l-6.723.35a6.6,6.6,0,0,1-.28-2.354,6.041,6.041,0,0,0,.21-3.178,27.836,27.836,0,0,1-1.191-4.2,7.252,7.252,0,0,0-.42,3.152c.21,1.541.14,3.362-.42,4.132a14.2,14.2,0,0,0-1.211,2.826s-17.754.485-43.569,10.688c62.446-9.285,126.728,0,126.728,0C336.367,184.318,316.011,179.115,316.011,179.115Zm-4.434-2.266c-1.186.9-.708,1.32-.708,1.32s-4.457-.908-6.326-1.124a1.26,1.26,0,0,1-1.116-1.411,1.929,1.929,0,0,1,1.339-1.693c1.377-.306,1.3-2.383,1.3-3.214s.153-2.755.153-2.755a35.324,35.324,0,0,1,3.979,3.673C310.964,172.716,313.091,175.7,311.576,176.848Z" transform="translate(-213.312 -126.14)"/>
  </g>
</svg>
