<svg xmlns="http://www.w3.org/2000/svg" viewBox="0 0 512 512"><defs><style>.cls-1{fill:#e58b43;}.cls-2{fill:#72b3cd;}.cls-3{fill:#2d353b;}</style></defs><g id="Object"><path class="cls-1" d="M193,330.34h59s19.68,20.91,25.83,25.83,87.32,0,109.46,0,29.52-17.22,34.44-32S416.82,228.25,407,216s-54.11-32-109.46-35.67-75,0-75,0-19.68-3.69-75,0S47.83,203.65,38,216,18.32,309.43,23.24,324.19s12.3,32,34.44,32,103.31,4.91,109.46,0S193,330.34,193,330.34ZM151.71,323c-8.05,2.46-74.36,0-81.74,0s-12.29-78.72,0-83.64c60.29-17.73,122.49-20.13,152.52-20.08s92.23,2.35,152.51,20.08c12.3,4.92,7.38,83.64,0,83.64s-73.68,2.46-81.73,0c-7.45-2.28-31.22-44-70.78-52.93C182.92,278.91,159.16,320.68,151.71,323Z"/><path class="cls-2" d="M480.78,122.94l-38.13,9.37V356.17c0,40.58-25.28,102.08-93.2,102.08-42.8,0-67.88-22.44-80.6-39.06a60.06,60.06,0,0,0,29.9-45.8H270.46s9.84,16-3.69,20.9-17.22-20.9-44.28-20.9-25.83,20.9-38.13,22.14-14.76-22.14-14.76-22.14H148.69s0,56.11,72.95,56.55c10.07,22.33,42.19,70.51,131.23,67.67,115.61-3.69,126.68-108.23,127.91-153.74S480.78,122.94,480.78,122.94Z"/><path class="cls-2" d="M359.65,37.12c-1.21-4.82-9.24-9.65-16.48-7.23,0,0-10.85-4-15.67-8.85s-30.95-13.26-45,5.23c-4.83,6,1.61,3.21-1.61,8.84s-18.49,13.67-19.7,16.48c0,0-8.8-34.42-46.22-23.31-4.15,1.23.8,18.09,26.53,27.73,0,0-22.11,9.65-20.5,22.51,0,0,33,9.25,41.8-19.29,0,0,1.61,10.05,14.87,18.49,0,0-6.43,6.83-4.82,8.44s13.26,3.21,20.9-2c0,0,21.3,3.62,32.16-.81,3.61-2.41,6-8.84,8.44-10.45,0,0-1.21,16.89,0,20.5,0,0,11.9-4,11.25-15.27,0,0,15.28-10.85,18.89-12.86s8.44-1.61,8-6.43S360.86,41.94,359.65,37.12Zm-18.89,2s-47,7.5-73.15,15c0,0,15.27-17.81,45.42-21,12.05-.8,27.73,2,27.73,2Zm8.44,7.24a5.63,5.63,0,1,1,5.63-5.63A5.63,5.63,0,0,1,349.2,46.37Z"/><circle class="cls-1" cx="444.62" cy="105.21" r="13.41"/><circle class="cls-1" cx="479.67" cy="65.53" r="19.68"/><circle class="cls-1" cx="423.05" cy="31.7" r="23.37" transform="translate(101.49 308.43) rotate(-45)"/><path class="cls-3" d="M26.91,107.06a1.29,1.29,0,0,1,1.24-1.91h7.47a1.33,1.33,0,0,1,1.24.81l14,31.47h.52L65.48,106a1.34,1.34,0,0,1,1.24-.81h7.47a1.29,1.29,0,0,1,1.24,1.91L52.74,156.31a1.31,1.31,0,0,1-1.24.81h-.73a1.33,1.33,0,0,1-1.25-.81Z"/><path class="cls-3" d="M71.77,154.48l22.76-49.25a1.33,1.33,0,0,1,1.25-.81h.73a1.24,1.24,0,0,1,1.24.81l22.55,49.25a1.3,1.3,0,0,1-1.25,1.91h-6.37a2.1,2.1,0,0,1-2.12-1.47L107,147H85.09l-3.59,7.9a2.19,2.19,0,0,1-2.12,1.47H73A1.3,1.3,0,0,1,71.77,154.48Zm31.62-15.58-7.32-16.11h-.22L88.68,138.9Z"/><path class="cls-3" d="M149.28,104.42A24.75,24.75,0,0,1,167,111.23a1.36,1.36,0,0,1,.07,2l-4.46,4.61a1.18,1.18,0,0,1-1.83,0,17.34,17.34,0,0,0-11.28-4.32c-9.36,0-16.32,7.83-16.32,17.05s7,16.91,16.4,16.91a17.58,17.58,0,0,0,11.2-4.17,1.35,1.35,0,0,1,1.83,0l4.53,4.68a1.4,1.4,0,0,1-.07,2,25.12,25.12,0,0,1-17.78,7.1,26.35,26.35,0,1,1,0-52.7Z"/><path class="cls-3" d="M170,154.48l22.76-49.25a1.33,1.33,0,0,1,1.25-.81h.73a1.24,1.24,0,0,1,1.24.81l22.55,49.25a1.3,1.3,0,0,1-1.25,1.91h-6.37a2.11,2.11,0,0,1-2.12-1.47l-3.58-7.9H183.3l-3.58,7.9a2.22,2.22,0,0,1-2.13,1.47h-6.36A1.3,1.3,0,0,1,170,154.48ZM201.6,138.9l-7.32-16.11h-.22l-7.17,16.11Z"/><path class="cls-3" d="M225.16,105.74a1.38,1.38,0,0,1,1.39-1.32h1.83l30.45,32.35h.07V106.54a1.39,1.39,0,0,1,1.39-1.39H267a1.44,1.44,0,0,1,1.39,1.39V155.8a1.37,1.37,0,0,1-1.39,1.32h-1.76l-30.59-33.6h-.08V155a1.39,1.39,0,0,1-1.39,1.39h-6.66a1.44,1.44,0,0,1-1.39-1.39Z"/><path class="cls-3" d="M304.42,104.42a24.74,24.74,0,0,1,17.71,6.81,1.36,1.36,0,0,1,.08,2l-4.47,4.61a1.18,1.18,0,0,1-1.83,0,17.29,17.29,0,0,0-11.27-4.32c-9.37,0-16.32,7.83-16.32,17.05s7,16.91,16.4,16.91a17.53,17.53,0,0,0,11.19-4.17,1.35,1.35,0,0,1,1.83,0l4.54,4.68a1.4,1.4,0,0,1-.07,2,25.13,25.13,0,0,1-17.79,7.1,26.35,26.35,0,1,1,0-52.7Z"/><path class="cls-3" d="M331.79,106.54a1.39,1.39,0,0,1,1.39-1.39H363a1.39,1.39,0,0,1,1.39,1.39v6a1.39,1.39,0,0,1-1.39,1.39H341.3v12h18.08a1.44,1.44,0,0,1,1.39,1.39v6.08a1.39,1.39,0,0,1-1.39,1.39H341.3v12.8H363a1.4,1.4,0,0,1,1.39,1.4v6a1.39,1.39,0,0,1-1.39,1.39H333.18a1.39,1.39,0,0,1-1.39-1.39Z"/><path class="cls-3" d="M371.82,149.22l2.64-4.54a1.68,1.68,0,0,1,2.48-.51c.37.21,6.3,4.53,11.06,4.53,3.8,0,6.66-2.49,6.66-5.63,0-3.74-3.15-6.3-9.3-8.79-6.88-2.78-13.76-7.17-13.76-15.81,0-6.51,4.83-14,16.47-14a25.79,25.79,0,0,1,14.64,4.91,1.81,1.81,0,0,1,.44,2.41l-2.78,4.17a1.93,1.93,0,0,1-2.57.88c-.58-.37-6.14-4-10.17-4s-6.44,2.79-6.44,5.13c0,3.44,2.71,5.78,8.64,8.2,7.1,2.85,15.29,7.1,15.29,16.54,0,7.54-6.51,14.49-16.83,14.49-9.22,0-14.64-4.32-16.1-5.71C371.53,150.75,371.16,150.39,371.82,149.22Z"/><path class="cls-3" d="M27.42,35.75a1.39,1.39,0,0,1,1.39-1.4H58.6A1.4,1.4,0,0,1,60,35.75v6a1.39,1.39,0,0,1-1.39,1.39H36.93V56.9H55a1.44,1.44,0,0,1,1.39,1.39v6A1.44,1.44,0,0,1,55,65.68H36.93V84.2a1.44,1.44,0,0,1-1.39,1.39H28.81a1.39,1.39,0,0,1-1.39-1.39Z"/><path class="cls-3" d="M68.69,35.75a1.44,1.44,0,0,1,1.39-1.4h6.81a1.44,1.44,0,0,1,1.39,1.4V84.2a1.44,1.44,0,0,1-1.39,1.39H70.08a1.44,1.44,0,0,1-1.39-1.39Z"/><path class="cls-3" d="M88.6,78.42l2.63-4.54a1.69,1.69,0,0,1,2.49-.51c.37.22,6.3,4.54,11,4.54,3.81,0,6.66-2.49,6.66-5.64,0-3.73-3.14-6.3-9.29-8.78-6.88-2.78-13.76-7.18-13.76-15.81,0-6.52,4.83-14.06,16.47-14.06a25.79,25.79,0,0,1,14.64,4.91,1.81,1.81,0,0,1,.44,2.41l-2.78,4.17a1.93,1.93,0,0,1-2.57.88c-.58-.36-6.15-4-10.17-4S98,44.75,98,47.09c0,3.44,2.71,5.78,8.63,8.2,7.1,2.85,15.3,7.1,15.3,16.54,0,7.54-6.51,14.49-16.83,14.49-9.22,0-14.64-4.32-16.1-5.71C88.31,80,87.94,79.59,88.6,78.42Z"/><path class="cls-3" d="M131.27,35.75a1.44,1.44,0,0,1,1.39-1.4h6.8a1.39,1.39,0,0,1,1.39,1.4V55.14h23.87V35.75a1.39,1.39,0,0,1,1.39-1.4h6.73a1.44,1.44,0,0,1,1.39,1.4V84.2a1.44,1.44,0,0,1-1.39,1.39h-6.73a1.39,1.39,0,0,1-1.39-1.39V64H140.85V84.2a1.39,1.39,0,0,1-1.39,1.39h-6.8a1.43,1.43,0,0,1-1.39-1.39Z"/></g></svg>